<mxfile host="app.diagrams.net" modified="2023-11-02T22:57:29.088Z" agent="Mozilla/5.0 (Macintosh; Intel Mac OS X 10_15_7) AppleWebKit/605.1.15 (KHTML, like Gecko) Version/15.4 Safari/605.1.15" etag="Lf_m4tqI6G_MxAbRpfRC" version="22.0.8" type="device">
  <diagram name="Страница — 1" id="NpRtpUgMMMk3ERiUsVs2">
    <mxGraphModel dx="1026" dy="692" grid="1" gridSize="10" guides="1" tooltips="1" connect="1" arrows="1" fold="1" page="1" pageScale="1" pageWidth="3300" pageHeight="7600" math="0" shadow="0">
      <root>
        <mxCell id="0" />
        <mxCell id="1" parent="0" />
        <mxCell id="FSEfA03kbgUQLvhoxwRy-1" value="Editor" style="shape=umlActor;verticalLabelPosition=bottom;verticalAlign=top;html=1;labelBackgroundColor=none;fillColor=#A8DADC;strokeColor=#457B9D;fontColor=#1D3557;" vertex="1" parent="1">
          <mxGeometry x="145" y="120" width="30" height="60" as="geometry" />
        </mxCell>
        <mxCell id="FSEfA03kbgUQLvhoxwRy-5" value="UI" style="shape=umlBoundary;whiteSpace=wrap;html=1;strokeColor=#457B9D;fontColor=#1D3557;fillColor=#A8DADC;" vertex="1" parent="1">
          <mxGeometry x="405" y="130" width="70" height="60" as="geometry" />
        </mxCell>
        <mxCell id="FSEfA03kbgUQLvhoxwRy-6" value="Logins&lt;br&gt;DB" style="ellipse;shape=umlEntity;whiteSpace=wrap;html=1;strokeColor=#457B9D;fontColor=#1D3557;fillColor=#A8DADC;" vertex="1" parent="1">
          <mxGeometry x="970" y="135" width="60" height="60" as="geometry" />
        </mxCell>
        <mxCell id="FSEfA03kbgUQLvhoxwRy-7" value="User&lt;br&gt;Based&lt;br&gt;Back" style="ellipse;shape=umlControl;whiteSpace=wrap;html=1;strokeColor=#457B9D;fontColor=#1D3557;fillColor=#A8DADC;" vertex="1" parent="1">
          <mxGeometry x="690" y="125" width="60" height="70" as="geometry" />
        </mxCell>
        <mxCell id="FSEfA03kbgUQLvhoxwRy-9" value="Orders&lt;br&gt;Editing&amp;nbsp;&lt;br&gt;Trans-action" style="ellipse;shape=umlControl;whiteSpace=wrap;html=1;strokeColor=#457B9D;fontColor=#1D3557;fillColor=#A8DADC;" vertex="1" parent="1">
          <mxGeometry x="1810" y="125" width="60" height="70" as="geometry" />
        </mxCell>
        <mxCell id="FSEfA03kbgUQLvhoxwRy-10" value="Files&lt;br&gt;DB" style="ellipse;shape=umlEntity;whiteSpace=wrap;html=1;strokeColor=#457B9D;fontColor=#1D3557;fillColor=#A8DADC;" vertex="1" parent="1">
          <mxGeometry x="1250" y="135" width="60" height="60" as="geometry" />
        </mxCell>
        <mxCell id="FSEfA03kbgUQLvhoxwRy-11" value="Server&lt;br&gt;Storage" style="ellipse;shape=umlEntity;whiteSpace=wrap;html=1;strokeColor=#457B9D;fontColor=#1D3557;fillColor=#A8DADC;" vertex="1" parent="1">
          <mxGeometry x="1530" y="135" width="60" height="60" as="geometry" />
        </mxCell>
        <mxCell id="FSEfA03kbgUQLvhoxwRy-12" value="" style="endArrow=none;dashed=1;html=1;dashPattern=1 3;strokeWidth=2;rounded=0;strokeColor=#457B9D;fontColor=#1D3557;fillColor=#A8DADC;entryX=0.5;entryY=0.5;entryDx=0;entryDy=0;entryPerimeter=0;" edge="1" parent="1" source="FSEfA03kbgUQLvhoxwRy-173" target="FSEfA03kbgUQLvhoxwRy-1">
          <mxGeometry width="50" height="50" relative="1" as="geometry">
            <mxPoint x="160" y="7561" as="sourcePoint" />
            <mxPoint x="270" y="300" as="targetPoint" />
          </mxGeometry>
        </mxCell>
        <mxCell id="FSEfA03kbgUQLvhoxwRy-13" value="" style="endArrow=none;dashed=1;html=1;dashPattern=1 3;strokeWidth=2;rounded=0;strokeColor=#457B9D;fontColor=#1D3557;fillColor=#A8DADC;entryX=0.486;entryY=1.05;entryDx=0;entryDy=0;entryPerimeter=0;" edge="1" parent="1" source="FSEfA03kbgUQLvhoxwRy-174" target="FSEfA03kbgUQLvhoxwRy-5">
          <mxGeometry width="50" height="50" relative="1" as="geometry">
            <mxPoint x="439" y="7561" as="sourcePoint" />
            <mxPoint x="439.5" y="200" as="targetPoint" />
          </mxGeometry>
        </mxCell>
        <mxCell id="FSEfA03kbgUQLvhoxwRy-14" value="" style="endArrow=none;dashed=1;html=1;dashPattern=1 3;strokeWidth=2;rounded=0;strokeColor=#457B9D;fontColor=#1D3557;fillColor=#A8DADC;" edge="1" parent="1" source="FSEfA03kbgUQLvhoxwRy-176" target="FSEfA03kbgUQLvhoxwRy-7">
          <mxGeometry width="50" height="50" relative="1" as="geometry">
            <mxPoint x="720" y="7560" as="sourcePoint" />
            <mxPoint x="719.5" y="203" as="targetPoint" />
          </mxGeometry>
        </mxCell>
        <mxCell id="FSEfA03kbgUQLvhoxwRy-15" value="" style="endArrow=none;dashed=1;html=1;dashPattern=1 3;strokeWidth=2;rounded=0;strokeColor=#457B9D;fontColor=#1D3557;fillColor=#A8DADC;entryX=0.5;entryY=1;entryDx=0;entryDy=0;" edge="1" parent="1" source="FSEfA03kbgUQLvhoxwRy-178" target="FSEfA03kbgUQLvhoxwRy-6">
          <mxGeometry width="50" height="50" relative="1" as="geometry">
            <mxPoint x="1000" y="7560" as="sourcePoint" />
            <mxPoint x="999.5" y="210" as="targetPoint" />
          </mxGeometry>
        </mxCell>
        <mxCell id="FSEfA03kbgUQLvhoxwRy-16" value="" style="endArrow=none;dashed=1;html=1;dashPattern=1 3;strokeWidth=2;rounded=0;strokeColor=#457B9D;fontColor=#1D3557;fillColor=#A8DADC;entryX=0.5;entryY=1;entryDx=0;entryDy=0;" edge="1" parent="1" source="FSEfA03kbgUQLvhoxwRy-190" target="FSEfA03kbgUQLvhoxwRy-10">
          <mxGeometry width="50" height="50" relative="1" as="geometry">
            <mxPoint x="1280" y="7560" as="sourcePoint" />
            <mxPoint x="1280" y="210" as="targetPoint" />
          </mxGeometry>
        </mxCell>
        <mxCell id="FSEfA03kbgUQLvhoxwRy-18" value="" style="endArrow=none;dashed=1;html=1;dashPattern=1 3;strokeWidth=2;rounded=0;strokeColor=#457B9D;fontColor=#1D3557;fillColor=#A8DADC;entryX=0.5;entryY=1;entryDx=0;entryDy=0;" edge="1" parent="1" target="FSEfA03kbgUQLvhoxwRy-11">
          <mxGeometry width="50" height="50" relative="1" as="geometry">
            <mxPoint x="1560" y="7560" as="sourcePoint" />
            <mxPoint x="1560" y="540" as="targetPoint" />
          </mxGeometry>
        </mxCell>
        <mxCell id="FSEfA03kbgUQLvhoxwRy-19" value="" style="endArrow=none;dashed=1;html=1;dashPattern=1 3;strokeWidth=2;rounded=0;strokeColor=#457B9D;fontColor=#1D3557;fillColor=#A8DADC;" edge="1" parent="1" source="FSEfA03kbgUQLvhoxwRy-292" target="FSEfA03kbgUQLvhoxwRy-9">
          <mxGeometry width="50" height="50" relative="1" as="geometry">
            <mxPoint x="1840" y="7560" as="sourcePoint" />
            <mxPoint x="1840" y="210" as="targetPoint" />
          </mxGeometry>
        </mxCell>
        <mxCell id="FSEfA03kbgUQLvhoxwRy-20" value="&#39;Work With Orders&#39; Button Pressed" style="html=1;verticalAlign=bottom;endArrow=block;curved=0;rounded=0;strokeColor=#457B9D;fontColor=#1D3557;fillColor=#A8DADC;" edge="1" parent="1">
          <mxGeometry width="80" relative="1" as="geometry">
            <mxPoint x="160" y="240" as="sourcePoint" />
            <mxPoint x="440" y="240" as="targetPoint" />
          </mxGeometry>
        </mxCell>
        <mxCell id="FSEfA03kbgUQLvhoxwRy-21" value="Send Request for &#39;Department&#39; List for Current User" style="html=1;verticalAlign=bottom;endArrow=block;curved=0;rounded=0;strokeColor=#457B9D;fontColor=#1D3557;fillColor=#A8DADC;" edge="1" parent="1">
          <mxGeometry width="80" relative="1" as="geometry">
            <mxPoint x="440" y="280" as="sourcePoint" />
            <mxPoint x="720" y="280" as="targetPoint" />
          </mxGeometry>
        </mxCell>
        <mxCell id="FSEfA03kbgUQLvhoxwRy-22" value="Get &#39;Department&#39; List for Current User" style="html=1;verticalAlign=bottom;endArrow=block;curved=0;rounded=0;strokeColor=#457B9D;fontColor=#1D3557;fillColor=#A8DADC;" edge="1" parent="1">
          <mxGeometry width="80" relative="1" as="geometry">
            <mxPoint x="720" y="320" as="sourcePoint" />
            <mxPoint x="1000" y="320" as="targetPoint" />
          </mxGeometry>
        </mxCell>
        <mxCell id="FSEfA03kbgUQLvhoxwRy-24" value="Form &#39;Department&#39; List&lt;br&gt;for Current User&amp;nbsp;" style="html=1;verticalAlign=bottom;endArrow=block;curved=0;rounded=0;strokeColor=#457B9D;fontColor=#1D3557;fillColor=#A8DADC;" edge="1" parent="1">
          <mxGeometry width="80" relative="1" as="geometry">
            <mxPoint x="1000" y="340" as="sourcePoint" />
            <mxPoint x="1000" y="440" as="targetPoint" />
            <Array as="points">
              <mxPoint x="1080" y="340" />
              <mxPoint x="1080" y="440" />
            </Array>
          </mxGeometry>
        </mxCell>
        <mxCell id="FSEfA03kbgUQLvhoxwRy-25" value="Send &#39;Department&#39; List for Current User" style="html=1;verticalAlign=bottom;endArrow=block;curved=0;rounded=0;strokeColor=#457B9D;fontColor=#1D3557;fillColor=#A8DADC;" edge="1" parent="1">
          <mxGeometry width="80" relative="1" as="geometry">
            <mxPoint x="1000" y="480" as="sourcePoint" />
            <mxPoint x="720" y="480" as="targetPoint" />
          </mxGeometry>
        </mxCell>
        <mxCell id="FSEfA03kbgUQLvhoxwRy-26" value="Send &#39;Department&#39; List for Current User" style="html=1;verticalAlign=bottom;endArrow=block;curved=0;rounded=0;strokeColor=#457B9D;fontColor=#1D3557;fillColor=#A8DADC;" edge="1" parent="1">
          <mxGeometry width="80" relative="1" as="geometry">
            <mxPoint x="720" y="520" as="sourcePoint" />
            <mxPoint x="440" y="520" as="targetPoint" />
          </mxGeometry>
        </mxCell>
        <mxCell id="FSEfA03kbgUQLvhoxwRy-27" value="Show &#39;Department&#39; List" style="html=1;verticalAlign=bottom;endArrow=block;curved=0;rounded=0;strokeColor=#457B9D;fontColor=#1D3557;fillColor=#A8DADC;" edge="1" parent="1">
          <mxGeometry width="80" relative="1" as="geometry">
            <mxPoint x="440" y="560" as="sourcePoint" />
            <mxPoint x="160" y="560" as="targetPoint" />
          </mxGeometry>
        </mxCell>
        <mxCell id="FSEfA03kbgUQLvhoxwRy-28" value="One Of List Items Selected" style="html=1;verticalAlign=bottom;endArrow=block;curved=0;rounded=0;strokeColor=#457B9D;fontColor=#1D3557;fillColor=#A8DADC;" edge="1" parent="1">
          <mxGeometry width="80" relative="1" as="geometry">
            <mxPoint x="160" y="600" as="sourcePoint" />
            <mxPoint x="440" y="600" as="targetPoint" />
          </mxGeometry>
        </mxCell>
        <mxCell id="FSEfA03kbgUQLvhoxwRy-29" value="Send Request For &#39;Order&#39; List for&lt;br&gt;Selected Department" style="html=1;verticalAlign=bottom;endArrow=block;curved=0;rounded=0;strokeColor=#457B9D;fontColor=#1D3557;fillColor=#A8DADC;" edge="1" parent="1">
          <mxGeometry width="80" relative="1" as="geometry">
            <mxPoint x="440" y="640" as="sourcePoint" />
            <mxPoint x="720" y="640" as="targetPoint" />
          </mxGeometry>
        </mxCell>
        <mxCell id="FSEfA03kbgUQLvhoxwRy-30" value="Get &#39;Order&#39; List with &#39;Edited Marker&#39;&lt;br&gt;&#39;Verified Marker&#39;, &#39;Bad Order Marker&#39;, &#39;Read Marker&#39;,&lt;br&gt;&#39;Link to File&#39;, &#39;Done Order Marker&#39; for&amp;nbsp;Selected Department" style="html=1;verticalAlign=bottom;endArrow=block;curved=0;rounded=0;strokeColor=#457B9D;fontColor=#1D3557;fillColor=#A8DADC;" edge="1" parent="1">
          <mxGeometry width="80" relative="1" as="geometry">
            <mxPoint x="720" y="680" as="sourcePoint" />
            <mxPoint x="1280" y="680" as="targetPoint" />
          </mxGeometry>
        </mxCell>
        <mxCell id="FSEfA03kbgUQLvhoxwRy-31" value="Form &#39;Order&#39; List&lt;br&gt;for Selected Department&amp;nbsp;" style="html=1;verticalAlign=bottom;endArrow=block;curved=0;rounded=0;strokeColor=#457B9D;fontColor=#1D3557;fillColor=#A8DADC;" edge="1" parent="1">
          <mxGeometry width="80" relative="1" as="geometry">
            <mxPoint x="1280" y="700" as="sourcePoint" />
            <mxPoint x="1280" y="800" as="targetPoint" />
            <Array as="points">
              <mxPoint x="1360" y="700" />
              <mxPoint x="1360" y="800" />
            </Array>
          </mxGeometry>
        </mxCell>
        <mxCell id="FSEfA03kbgUQLvhoxwRy-32" value="Send &#39;Order&#39; List with &#39;Edited Marker&#39;&lt;br&gt;&#39;Verified Marker&#39;, &#39;Bad Order Marker&#39;, &#39;Read Marker&#39;,&lt;br&gt;&#39;Link to File&#39;, &#39;Done Order Marker&#39;&amp;nbsp;for&amp;nbsp;Selected Department" style="html=1;verticalAlign=bottom;endArrow=block;curved=0;rounded=0;strokeColor=#457B9D;fontColor=#1D3557;fillColor=#A8DADC;" edge="1" parent="1">
          <mxGeometry width="80" relative="1" as="geometry">
            <mxPoint x="1280" y="840" as="sourcePoint" />
            <mxPoint x="720" y="840" as="targetPoint" />
          </mxGeometry>
        </mxCell>
        <mxCell id="FSEfA03kbgUQLvhoxwRy-34" value="Send &#39;Order&#39; List with &#39;Edited Marker&#39;&lt;br&gt;&#39;Verified Marker&#39;, &#39;Bad Order Marker&#39;, &#39;Read Marker&#39;,&lt;br&gt;&#39;Done Order Marker&#39;&amp;nbsp;and &#39;Name&#39;" style="html=1;verticalAlign=bottom;endArrow=block;curved=0;rounded=0;strokeColor=#457B9D;fontColor=#1D3557;fillColor=#A8DADC;" edge="1" parent="1">
          <mxGeometry width="80" relative="1" as="geometry">
            <mxPoint x="720" y="1040" as="sourcePoint" />
            <mxPoint x="440" y="1040" as="targetPoint" />
          </mxGeometry>
        </mxCell>
        <mxCell id="FSEfA03kbgUQLvhoxwRy-35" value="Show &#39;Order&#39; List with &#39;Name&#39; and where all Items&lt;br&gt;where &#39;Done Order Marker&#39; = true colored in &lt;br&gt;&#39;Deep Green&#39;,&amp;nbsp;where &#39;Bad Order Marker&#39; = true &lt;br&gt;in &#39;Red&#39;,&amp;nbsp;where&amp;nbsp;&#39;Verified Marker&#39; = true in &lt;br&gt;&#39;Pale Green&#39;,&amp;nbsp;where &#39;Edited Marker&#39; = true in &lt;br&gt;&#39;Pale Purple&#39;,&amp;nbsp;where &#39;Read Marker&#39; = true in&lt;br&gt;&amp;nbsp;&#39;Light Cyan&#39;,&amp;nbsp;where &#39;Read Marker&#39; = false&lt;br&gt;&amp;nbsp;in &#39;Pale Cyan&#39;" style="html=1;verticalAlign=bottom;endArrow=block;curved=0;rounded=0;strokeColor=#457B9D;fontColor=#1D3557;fillColor=#A8DADC;" edge="1" parent="1">
          <mxGeometry width="80" relative="1" as="geometry">
            <mxPoint x="440" y="1120" as="sourcePoint" />
            <mxPoint x="160" y="1120" as="targetPoint" />
          </mxGeometry>
        </mxCell>
        <mxCell id="FSEfA03kbgUQLvhoxwRy-37" value="One Of List Items Selected" style="html=1;verticalAlign=bottom;endArrow=block;curved=0;rounded=0;strokeColor=#457B9D;fontColor=#1D3557;fillColor=#A8DADC;" edge="1" parent="1">
          <mxGeometry width="80" relative="1" as="geometry">
            <mxPoint x="160" y="1160" as="sourcePoint" />
            <mxPoint x="440" y="1160" as="targetPoint" />
          </mxGeometry>
        </mxCell>
        <mxCell id="FSEfA03kbgUQLvhoxwRy-38" value="Send Request for Detailed &lt;br&gt;Info&amp;nbsp;for Selected&amp;nbsp;Order" style="html=1;verticalAlign=bottom;endArrow=block;curved=0;rounded=0;strokeColor=#457B9D;fontColor=#1D3557;fillColor=#A8DADC;" edge="1" parent="1">
          <mxGeometry width="80" relative="1" as="geometry">
            <mxPoint x="440" y="1200" as="sourcePoint" />
            <mxPoint x="720" y="1200" as="targetPoint" />
          </mxGeometry>
        </mxCell>
        <mxCell id="FSEfA03kbgUQLvhoxwRy-39" value="Get &#39;Description&#39;, &#39;Complaint Description&#39;,&lt;br&gt;&#39;Sender (Login)&#39;, &#39;Sent to (email)&#39;, &#39;Edited by (Login)&#39;,&lt;br&gt;&#39;Complaint by (Login)&#39;, &#39;Done by (Login)&#39; for Selected&lt;br&gt;Order" style="html=1;verticalAlign=bottom;endArrow=block;curved=0;rounded=0;strokeColor=#457B9D;fontColor=#1D3557;fillColor=#A8DADC;" edge="1" parent="1">
          <mxGeometry width="80" relative="1" as="geometry">
            <mxPoint x="720" y="1240" as="sourcePoint" />
            <mxPoint x="1280" y="1240" as="targetPoint" />
          </mxGeometry>
        </mxCell>
        <mxCell id="FSEfA03kbgUQLvhoxwRy-40" value="Send &#39;Description&#39;, &#39;Complaint Description&#39;,&lt;br style=&quot;border-color: var(--border-color);&quot;&gt;&#39;Sender (Login)&#39;, &#39;Sent to (email)&#39;, &#39;Edited by (Login)&#39;,&lt;br style=&quot;border-color: var(--border-color);&quot;&gt;&#39;Complaint by (Login)&#39;, &#39;Done by (Login)&#39; for Selected&lt;br style=&quot;border-color: var(--border-color);&quot;&gt;Order" style="html=1;verticalAlign=bottom;endArrow=block;curved=0;rounded=0;strokeColor=#457B9D;fontColor=#1D3557;fillColor=#A8DADC;" edge="1" parent="1">
          <mxGeometry width="80" relative="1" as="geometry">
            <mxPoint x="1281" y="1320" as="sourcePoint" />
            <mxPoint x="719" y="1320" as="targetPoint" />
            <Array as="points" />
          </mxGeometry>
        </mxCell>
        <mxCell id="FSEfA03kbgUQLvhoxwRy-41" value="Send &#39;Description&#39;, &#39;Complaint Description&#39;,&lt;br style=&quot;border-color: var(--border-color);&quot;&gt;&#39;Sender (Login)&#39;, &#39;Sent to (email)&#39;, &#39;Edited by (Login)&#39;,&lt;br style=&quot;border-color: var(--border-color);&quot;&gt;&#39;Complaint by (Login)&#39;, &#39;Done by (Login)&#39; for Selected&lt;br style=&quot;border-color: var(--border-color);&quot;&gt;Order" style="html=1;verticalAlign=bottom;endArrow=block;curved=0;rounded=0;strokeColor=#457B9D;fontColor=#1D3557;fillColor=#A8DADC;" edge="1" parent="1">
          <mxGeometry width="80" relative="1" as="geometry">
            <mxPoint x="721" y="1783" as="sourcePoint" />
            <mxPoint x="440" y="1783" as="targetPoint" />
            <Array as="points" />
          </mxGeometry>
        </mxCell>
        <mxCell id="FSEfA03kbgUQLvhoxwRy-42" value="Show &#39;Detailed Order View&#39; Menu with&amp;nbsp;&lt;br&gt;&#39;Order Name&#39;, &#39;Description&#39;, &#39;Verify&#39; Button,&lt;br&gt;&#39;View Document&#39; Button, &#39;Edit Description&#39; Button,&lt;br&gt;&#39;Edit Document&#39; Button" style="html=1;verticalAlign=bottom;endArrow=block;curved=0;rounded=0;strokeColor=#457B9D;fontColor=#1D3557;fillColor=#A8DADC;" edge="1" parent="1">
          <mxGeometry width="80" relative="1" as="geometry">
            <mxPoint x="440.5" y="1940" as="sourcePoint" />
            <mxPoint x="159.5" y="1940" as="targetPoint" />
            <Array as="points" />
          </mxGeometry>
        </mxCell>
        <mxCell id="FSEfA03kbgUQLvhoxwRy-44" value="Change &#39;Read Marker&#39; to true&lt;br&gt;for Order with received &#39;Name&#39;" style="html=1;verticalAlign=bottom;endArrow=block;curved=0;rounded=0;strokeColor=#457B9D;fontColor=#1D3557;fillColor=#A8DADC;" edge="1" parent="1">
          <mxGeometry width="80" relative="1" as="geometry">
            <mxPoint x="720" y="1406" as="sourcePoint" />
            <mxPoint x="720" y="1506" as="targetPoint" />
            <Array as="points">
              <mxPoint x="800" y="1406" />
              <mxPoint x="800" y="1506" />
            </Array>
          </mxGeometry>
        </mxCell>
        <mxCell id="FSEfA03kbgUQLvhoxwRy-45" value="Change &#39;Read Marker&#39; in DB&lt;br&gt;for received &#39;Name&#39;&lt;br&gt;&amp;nbsp;(for link to file with received &#39;Name&#39;)" style="html=1;verticalAlign=bottom;endArrow=block;curved=0;rounded=0;strokeColor=#457B9D;fontColor=#1D3557;fillColor=#A8DADC;" edge="1" parent="1">
          <mxGeometry width="80" relative="1" as="geometry">
            <mxPoint x="720" y="1569" as="sourcePoint" />
            <mxPoint x="1840" y="1569" as="targetPoint" />
          </mxGeometry>
        </mxCell>
        <mxCell id="FSEfA03kbgUQLvhoxwRy-46" value="Change &#39;Read Marker&#39;" style="html=1;verticalAlign=bottom;endArrow=block;curved=0;rounded=0;strokeColor=#457B9D;fontColor=#1D3557;fillColor=#A8DADC;" edge="1" parent="1">
          <mxGeometry width="80" relative="1" as="geometry">
            <mxPoint x="1840" y="1630" as="sourcePoint" />
            <mxPoint x="1280" y="1630" as="targetPoint" />
          </mxGeometry>
        </mxCell>
        <mxCell id="FSEfA03kbgUQLvhoxwRy-47" value="Send Transaction Result" style="html=1;verticalAlign=bottom;endArrow=block;curved=0;rounded=0;strokeColor=#457B9D;fontColor=#1D3557;fillColor=#A8DADC;" edge="1" parent="1">
          <mxGeometry width="80" relative="1" as="geometry">
            <mxPoint x="1840" y="1670" as="sourcePoint" />
            <mxPoint x="719" y="1670" as="targetPoint" />
          </mxGeometry>
        </mxCell>
        <mxCell id="FSEfA03kbgUQLvhoxwRy-54" value="" style="endArrow=none;dashed=1;html=1;dashPattern=1 3;strokeWidth=2;rounded=0;strokeColor=#457B9D;fontColor=#1D3557;fillColor=#A8DADC;entryX=0.5;entryY=0.986;entryDx=0;entryDy=0;entryPerimeter=0;" edge="1" parent="1" source="FSEfA03kbgUQLvhoxwRy-56" target="FSEfA03kbgUQLvhoxwRy-55">
          <mxGeometry width="50" height="50" relative="1" as="geometry">
            <mxPoint x="720" y="4576" as="sourcePoint" />
            <mxPoint x="720" y="1051" as="targetPoint" />
          </mxGeometry>
        </mxCell>
        <mxCell id="FSEfA03kbgUQLvhoxwRy-57" value="" style="html=1;points=[[0,0,0,0,5],[0,1,0,0,-5],[1,0,0,0,5],[1,1,0,0,-5]];perimeter=orthogonalPerimeter;outlineConnect=0;targetShapes=umlLifeline;portConstraint=eastwest;newEdgeStyle={&quot;curved&quot;:0,&quot;rounded&quot;:0};strokeColor=#457B9D;fontColor=#1D3557;fillColor=#A8DADC;" vertex="1" parent="1">
          <mxGeometry x="1836" y="1570" width="10" height="58" as="geometry" />
        </mxCell>
        <mxCell id="FSEfA03kbgUQLvhoxwRy-58" value="" style="html=1;points=[[0,0,0,0,5],[0,1,0,0,-5],[1,0,0,0,5],[1,1,0,0,-5]];perimeter=orthogonalPerimeter;outlineConnect=0;targetShapes=umlLifeline;portConstraint=eastwest;newEdgeStyle={&quot;curved&quot;:0,&quot;rounded&quot;:0};strokeColor=#457B9D;fontColor=#1D3557;fillColor=#A8DADC;" vertex="1" parent="1">
          <mxGeometry x="1836" y="1659" width="10" height="25" as="geometry" />
        </mxCell>
        <mxCell id="FSEfA03kbgUQLvhoxwRy-60" value="Kafka" style="ellipse;shape=umlEntity;whiteSpace=wrap;html=1;strokeColor=#457B9D;fontColor=#1D3557;fillColor=#A8DADC;" vertex="1" parent="1">
          <mxGeometry x="2090" y="135" width="60" height="60" as="geometry" />
        </mxCell>
        <mxCell id="FSEfA03kbgUQLvhoxwRy-61" value="" style="endArrow=none;dashed=1;html=1;dashPattern=1 3;strokeWidth=2;rounded=0;strokeColor=#457B9D;fontColor=#1D3557;fillColor=#A8DADC;entryX=0.5;entryY=1;entryDx=0;entryDy=0;" edge="1" parent="1" target="FSEfA03kbgUQLvhoxwRy-60" source="FSEfA03kbgUQLvhoxwRy-289">
          <mxGeometry width="50" height="50" relative="1" as="geometry">
            <mxPoint x="2120" y="7560" as="sourcePoint" />
            <mxPoint x="2120" y="200" as="targetPoint" />
          </mxGeometry>
        </mxCell>
        <mxCell id="FSEfA03kbgUQLvhoxwRy-65" value="Show &#39;Detailed Order View&#39; Menu with&amp;nbsp;&lt;br&gt;&#39;Order Name&#39;, &#39;Description&#39;, &quot;Edited by:&quot; +&lt;br&gt;&#39;Edited by (Login)&#39;, &#39;Verify&#39; Button,&lt;br&gt;&#39;View Document&#39; Button, &#39;Edit Description&#39; Button,&lt;br&gt;&#39;Edit Document&#39; Button" style="html=1;verticalAlign=bottom;endArrow=block;curved=0;rounded=0;strokeColor=#457B9D;fontColor=#1D3557;fillColor=#A8DADC;" edge="1" parent="1">
          <mxGeometry width="80" relative="1" as="geometry">
            <mxPoint x="440.5" y="2120" as="sourcePoint" />
            <mxPoint x="159.5" y="2120" as="targetPoint" />
            <Array as="points" />
          </mxGeometry>
        </mxCell>
        <mxCell id="FSEfA03kbgUQLvhoxwRy-68" value="Show &#39;Detailed Order View&#39; Menu with&amp;nbsp;&lt;br&gt;&#39;Order Name&#39;, &#39;Description&#39;, &quot;Verified by:&quot; +&lt;br&gt;&#39;Sender (Login)&#39;,&amp;nbsp;&#39;View Document&#39; Button, &lt;br&gt;&#39;Edit Description&#39; Button,&amp;nbsp;&#39;Edit Document&#39; Button" style="html=1;verticalAlign=bottom;endArrow=block;curved=0;rounded=0;strokeColor=#457B9D;fontColor=#1D3557;fillColor=#A8DADC;" edge="1" parent="1">
          <mxGeometry width="80" relative="1" as="geometry">
            <mxPoint x="440.5" y="2300" as="sourcePoint" />
            <mxPoint x="159.5" y="2300" as="targetPoint" />
            <Array as="points" />
          </mxGeometry>
        </mxCell>
        <mxCell id="FSEfA03kbgUQLvhoxwRy-71" value="Show &#39;Detailed Order View&#39; Menu with&amp;nbsp;&lt;br&gt;&#39;Order Name&#39;, &#39;Description&#39;, &quot;Edited by:&quot; +&lt;br&gt;&#39;Edited by (Login)&#39;, &quot;Verified by:&quot; +&lt;br&gt;&#39;Sender (Login)&#39;,&amp;nbsp;&#39;View Document&#39; Button" style="html=1;verticalAlign=bottom;endArrow=block;curved=0;rounded=0;strokeColor=#457B9D;fontColor=#1D3557;fillColor=#A8DADC;" edge="1" parent="1">
          <mxGeometry x="0.0036" width="80" relative="1" as="geometry">
            <mxPoint x="441" y="2510" as="sourcePoint" />
            <mxPoint x="160" y="2510" as="targetPoint" />
            <Array as="points" />
            <mxPoint as="offset" />
          </mxGeometry>
        </mxCell>
        <mxCell id="FSEfA03kbgUQLvhoxwRy-75" value="Show &#39;Detailed Order View&#39; Menu with&amp;nbsp;&lt;br&gt;&#39;Order Name&#39;, &#39;Description&#39;, &#39;Complaint Description&#39;&lt;br&gt;, &quot;Complained by:&quot; + &#39;Complaint by (Login)&#39;,&lt;br&gt;&amp;nbsp;&quot;Verified by:&quot; +&amp;nbsp;&#39;Sender (Login)&#39;,&amp;nbsp;&#39;View Document&#39; Button, &lt;br&gt;&#39;Edit Description&#39; Button,&amp;nbsp;&#39;Edit Document&#39; Button" style="html=1;verticalAlign=bottom;endArrow=block;curved=0;rounded=0;strokeColor=#457B9D;fontColor=#1D3557;fillColor=#A8DADC;" edge="1" parent="1">
          <mxGeometry width="80" relative="1" as="geometry">
            <mxPoint x="440.5" y="2700" as="sourcePoint" />
            <mxPoint x="159.5" y="2700" as="targetPoint" />
            <Array as="points" />
          </mxGeometry>
        </mxCell>
        <mxCell id="FSEfA03kbgUQLvhoxwRy-78" value="Show &#39;Detailed Order View&#39; Menu with&amp;nbsp;&lt;br&gt;&#39;Order Name&#39;, &#39;Description&#39;, &#39;Complaint Description&#39;&lt;br&gt;,&amp;nbsp;&amp;nbsp;&quot;Answered by:&quot; +&amp;nbsp;&#39;Edited by (Login)&#39;,&lt;br&gt;&quot;Complained by:&quot; + &#39;Complaint by (Login)&#39;,&lt;br&gt;&amp;nbsp;&quot;Verified by:&quot; +&amp;nbsp;&#39;Sender (Login)&#39;,&amp;nbsp;&#39;View Document&#39; Button, &lt;br&gt;&#39;Edit Description&#39; Button,&amp;nbsp;&#39;Edit Document&#39; Button, " style="html=1;verticalAlign=bottom;endArrow=block;curved=0;rounded=0;strokeColor=#457B9D;fontColor=#1D3557;fillColor=#A8DADC;" edge="1" parent="1">
          <mxGeometry x="0.0036" width="80" relative="1" as="geometry">
            <mxPoint x="440.5" y="2900" as="sourcePoint" />
            <mxPoint x="159.5" y="2900" as="targetPoint" />
            <Array as="points" />
            <mxPoint as="offset" />
          </mxGeometry>
        </mxCell>
        <mxCell id="FSEfA03kbgUQLvhoxwRy-82" value="Show &#39;Detailed Order View&#39; Menu with&amp;nbsp;&lt;br&gt;&#39;Order Name&#39;, &#39;Description&#39;,&amp;nbsp;&lt;br&gt;&#39;Complaint Description&#39;, &quot;Answered by:&quot; +&lt;br&gt;&#39;Edited by (Login)&#39;,&amp;nbsp;&quot;Complained by:&quot; + &lt;br&gt;&#39;Complaint by (Login)&#39;,&amp;nbsp;&quot;Verified by:&quot; +&lt;br&gt;&#39;Sender (Login)&#39;,&amp;nbsp;&#39;View Document&#39; Button" style="html=1;verticalAlign=bottom;endArrow=block;curved=0;rounded=0;strokeColor=#457B9D;fontColor=#1D3557;fillColor=#A8DADC;" edge="1" parent="1">
          <mxGeometry width="80" relative="1" as="geometry">
            <mxPoint x="441" y="3080" as="sourcePoint" />
            <mxPoint x="160" y="3080" as="targetPoint" />
            <Array as="points" />
          </mxGeometry>
        </mxCell>
        <mxCell id="FSEfA03kbgUQLvhoxwRy-85" value="Show &#39;Detailed Order View&#39; Menu with&amp;nbsp;&lt;br&gt;&#39;Order Name&#39;, &#39;Description&#39;,&amp;nbsp;&quot;Verified by:&quot; +&lt;br&gt;&#39;Sender (Login)&#39;, &quot;Done by:&quot; + &#39;Done by (Login)&#39;,&lt;br&gt;&quot;Sent to: &quot; + &#39;Sent to (email)&#39;,&lt;br&gt;&amp;nbsp;&#39;View Document&#39; Button" style="html=1;verticalAlign=bottom;endArrow=block;curved=0;rounded=0;strokeColor=#457B9D;fontColor=#1D3557;fillColor=#A8DADC;" edge="1" parent="1">
          <mxGeometry x="0.0036" width="80" relative="1" as="geometry">
            <mxPoint x="441" y="3280" as="sourcePoint" />
            <mxPoint x="160" y="3280" as="targetPoint" />
            <Array as="points" />
            <mxPoint as="offset" />
          </mxGeometry>
        </mxCell>
        <mxCell id="FSEfA03kbgUQLvhoxwRy-88" value="Show &#39;Detailed Order View&#39; Menu with&amp;nbsp;&lt;br&gt;&#39;Order Name&#39;, &#39;Description&#39;,&#39;Complaint Description&#39;,&lt;br&gt;&amp;nbsp;&quot;Answered by:&quot; +&amp;nbsp;&#39;Edited by (Login)&#39;,&lt;br&gt;&quot;Verified by:&quot; +&amp;nbsp;&#39;Sender (Login)&#39;,&lt;br&gt;&quot;Complained by:&quot; +&amp;nbsp;&#39;Complaint by (Login)&#39;,&lt;br&gt;&amp;nbsp;&quot;Done by:&quot; + &#39;Done by (Login)&#39;,&lt;br&gt;&quot;Sent to: &quot; + &#39;Sent to (email)&#39;,&lt;br&gt;&amp;nbsp;&#39;View Document&#39; Button" style="html=1;verticalAlign=bottom;endArrow=block;curved=0;rounded=0;strokeColor=#457B9D;fontColor=#1D3557;fillColor=#A8DADC;" edge="1" parent="1">
          <mxGeometry x="0.0036" width="80" relative="1" as="geometry">
            <mxPoint x="441" y="3520" as="sourcePoint" />
            <mxPoint x="160" y="3520" as="targetPoint" />
            <Array as="points" />
            <mxPoint as="offset" />
          </mxGeometry>
        </mxCell>
        <mxCell id="FSEfA03kbgUQLvhoxwRy-91" value="Show &#39;Detailed Order View&#39; Menu with&amp;nbsp;&lt;br&gt;&#39;Order Name&#39;, &#39;Description&#39;,&amp;nbsp;&quot;Edited by:&quot; +&lt;br&gt;&amp;nbsp;&#39;Edited by (Login)&#39;,&amp;nbsp;&quot;Verified by:&quot; +&amp;nbsp;&lt;br&gt;&#39;Sender (Login)&#39;,&amp;nbsp;&quot;Done by:&quot; +&lt;br&gt;&amp;nbsp;&#39;Done by (Login)&#39;,&amp;nbsp;&quot;Sent to: &quot; + &#39;Sent to (email)&#39;,&lt;br&gt;&amp;nbsp;&#39;View Document&#39; Button" style="html=1;verticalAlign=bottom;endArrow=block;curved=0;rounded=0;strokeColor=#457B9D;fontColor=#1D3557;fillColor=#A8DADC;" edge="1" parent="1">
          <mxGeometry x="0.0036" width="80" relative="1" as="geometry">
            <mxPoint x="440.5" y="3760" as="sourcePoint" />
            <mxPoint x="159.5" y="3760" as="targetPoint" />
            <Array as="points" />
            <mxPoint as="offset" />
          </mxGeometry>
        </mxCell>
        <mxCell id="FSEfA03kbgUQLvhoxwRy-92" value="&#39;View Document&#39; Button Pressed" style="html=1;verticalAlign=bottom;endArrow=block;curved=0;rounded=0;strokeColor=#457B9D;fontColor=#1D3557;fillColor=#A8DADC;" edge="1" parent="1">
          <mxGeometry x="0.0071" width="80" relative="1" as="geometry">
            <mxPoint x="160" y="3960" as="sourcePoint" />
            <mxPoint x="440" y="3960" as="targetPoint" />
            <Array as="points" />
            <mxPoint as="offset" />
          </mxGeometry>
        </mxCell>
        <mxCell id="FSEfA03kbgUQLvhoxwRy-93" value="Send Request For Document by link" style="html=1;verticalAlign=bottom;endArrow=block;curved=0;rounded=0;strokeColor=#457B9D;fontColor=#1D3557;fillColor=#A8DADC;" edge="1" parent="1">
          <mxGeometry x="0.0036" width="80" relative="1" as="geometry">
            <mxPoint x="435" y="4000" as="sourcePoint" />
            <mxPoint x="715" y="4000" as="targetPoint" />
            <Array as="points" />
            <mxPoint as="offset" />
          </mxGeometry>
        </mxCell>
        <mxCell id="FSEfA03kbgUQLvhoxwRy-94" value="Get Document by Link" style="html=1;verticalAlign=bottom;endArrow=block;curved=0;rounded=0;strokeColor=#457B9D;fontColor=#1D3557;fillColor=#A8DADC;" edge="1" parent="1">
          <mxGeometry x="0.0036" width="80" relative="1" as="geometry">
            <mxPoint x="718" y="4040" as="sourcePoint" />
            <mxPoint x="1560" y="4040" as="targetPoint" />
            <Array as="points" />
            <mxPoint as="offset" />
          </mxGeometry>
        </mxCell>
        <mxCell id="FSEfA03kbgUQLvhoxwRy-95" value="Send Requested Document" style="html=1;verticalAlign=bottom;endArrow=block;curved=0;rounded=0;strokeColor=#457B9D;fontColor=#1D3557;fillColor=#A8DADC;" edge="1" parent="1">
          <mxGeometry x="0.0036" width="80" relative="1" as="geometry">
            <mxPoint x="1560" y="4080" as="sourcePoint" />
            <mxPoint x="719" y="4080" as="targetPoint" />
            <Array as="points" />
            <mxPoint as="offset" />
          </mxGeometry>
        </mxCell>
        <mxCell id="FSEfA03kbgUQLvhoxwRy-96" value="Send Requested Document" style="html=1;verticalAlign=bottom;endArrow=block;curved=0;rounded=0;strokeColor=#457B9D;fontColor=#1D3557;fillColor=#A8DADC;" edge="1" parent="1">
          <mxGeometry x="0.0036" width="80" relative="1" as="geometry">
            <mxPoint x="720.5" y="4120" as="sourcePoint" />
            <mxPoint x="440" y="4120" as="targetPoint" />
            <Array as="points" />
            <mxPoint as="offset" />
          </mxGeometry>
        </mxCell>
        <mxCell id="FSEfA03kbgUQLvhoxwRy-97" value="Show Document in &#39;Read Only&#39; Mode" style="html=1;verticalAlign=bottom;endArrow=block;curved=0;rounded=0;strokeColor=#457B9D;fontColor=#1D3557;fillColor=#A8DADC;" edge="1" parent="1">
          <mxGeometry x="0.0036" width="80" relative="1" as="geometry">
            <mxPoint x="440.25" y="4160" as="sourcePoint" />
            <mxPoint x="159.75" y="4160" as="targetPoint" />
            <Array as="points" />
            <mxPoint as="offset" />
          </mxGeometry>
        </mxCell>
        <mxCell id="FSEfA03kbgUQLvhoxwRy-100" value="&#39;Edit Description&#39; Button Pressed" style="html=1;verticalAlign=bottom;endArrow=block;curved=0;rounded=0;strokeColor=#457B9D;fontColor=#1D3557;fillColor=#A8DADC;" edge="1" parent="1">
          <mxGeometry x="0.0071" width="80" relative="1" as="geometry">
            <mxPoint x="160" y="4439" as="sourcePoint" />
            <mxPoint x="440" y="4439" as="targetPoint" />
            <Array as="points" />
            <mxPoint as="offset" />
          </mxGeometry>
        </mxCell>
        <mxCell id="FSEfA03kbgUQLvhoxwRy-101" value="Make &#39;Description&#39; Field Editable,&lt;br&gt;select focus on it, add &#39;Done&#39; Button&lt;br&gt;to current Menu and make all&lt;br&gt;different buttons - not enabled &lt;br&gt;(except &#39;Return&#39; Button)" style="html=1;verticalAlign=bottom;endArrow=block;curved=0;rounded=0;strokeColor=#457B9D;fontColor=#1D3557;fillColor=#A8DADC;" edge="1" parent="1">
          <mxGeometry x="0.0071" width="80" relative="1" as="geometry">
            <mxPoint x="440" y="4509" as="sourcePoint" />
            <mxPoint x="160" y="4509" as="targetPoint" />
            <Array as="points" />
            <mxPoint as="offset" />
          </mxGeometry>
        </mxCell>
        <mxCell id="FSEfA03kbgUQLvhoxwRy-102" value="Change &#39;Description&#39;" style="html=1;verticalAlign=bottom;endArrow=block;curved=0;rounded=0;strokeColor=#457B9D;fontColor=#1D3557;fillColor=#A8DADC;" edge="1" parent="1">
          <mxGeometry x="0.0071" width="80" relative="1" as="geometry">
            <mxPoint x="160" y="4549" as="sourcePoint" />
            <mxPoint x="440" y="4549" as="targetPoint" />
            <Array as="points" />
            <mxPoint as="offset" />
          </mxGeometry>
        </mxCell>
        <mxCell id="FSEfA03kbgUQLvhoxwRy-103" value="&#39;Done&#39; Button Pressed" style="html=1;verticalAlign=bottom;endArrow=block;curved=0;rounded=0;strokeColor=#457B9D;fontColor=#1D3557;fillColor=#A8DADC;" edge="1" parent="1">
          <mxGeometry x="0.0071" width="80" relative="1" as="geometry">
            <mxPoint x="160" y="4599" as="sourcePoint" />
            <mxPoint x="440" y="4599" as="targetPoint" />
            <Array as="points" />
            <mxPoint as="offset" />
          </mxGeometry>
        </mxCell>
        <mxCell id="FSEfA03kbgUQLvhoxwRy-105" value="Send new &#39;Description&#39;" style="html=1;verticalAlign=bottom;endArrow=block;curved=0;rounded=0;strokeColor=#457B9D;fontColor=#1D3557;fillColor=#A8DADC;" edge="1" parent="1">
          <mxGeometry x="0.0071" width="80" relative="1" as="geometry">
            <mxPoint x="439" y="4639" as="sourcePoint" />
            <mxPoint x="719" y="4639" as="targetPoint" />
            <Array as="points" />
            <mxPoint as="offset" />
          </mxGeometry>
        </mxCell>
        <mxCell id="FSEfA03kbgUQLvhoxwRy-106" value="Make &#39;Description&#39; Field not Editable,&amp;nbsp;&lt;br&gt;add &#39;Save Changes&#39; Button&amp;nbsp;to current Menu&lt;br&gt;and make all buttons - enabled" style="html=1;verticalAlign=bottom;endArrow=block;curved=0;rounded=0;strokeColor=#457B9D;fontColor=#1D3557;fillColor=#A8DADC;" edge="1" parent="1">
          <mxGeometry x="0.0071" width="80" relative="1" as="geometry">
            <mxPoint x="440" y="4753" as="sourcePoint" />
            <mxPoint x="160" y="4753" as="targetPoint" />
            <Array as="points" />
            <mxPoint as="offset" />
          </mxGeometry>
        </mxCell>
        <mxCell id="FSEfA03kbgUQLvhoxwRy-107" value="Make &#39;Description&#39; Field not Editable,&lt;br&gt;&amp;nbsp;,add &#39;Respond to Complaint&#39; Button&amp;nbsp;to current Menu&lt;br&gt;and make all buttons - enabled" style="html=1;verticalAlign=bottom;endArrow=block;curved=0;rounded=0;strokeColor=#457B9D;fontColor=#1D3557;fillColor=#A8DADC;" edge="1" parent="1">
          <mxGeometry x="0.0071" width="80" relative="1" as="geometry">
            <mxPoint x="440" y="4883" as="sourcePoint" />
            <mxPoint x="160" y="4883" as="targetPoint" />
            <Array as="points" />
            <mxPoint as="offset" />
          </mxGeometry>
        </mxCell>
        <mxCell id="FSEfA03kbgUQLvhoxwRy-118" value="&#39;Edit Document&#39; Button Pressed" style="html=1;verticalAlign=bottom;endArrow=block;curved=0;rounded=0;strokeColor=#457B9D;fontColor=#1D3557;fillColor=#A8DADC;" edge="1" parent="1">
          <mxGeometry x="0.0071" width="80" relative="1" as="geometry">
            <mxPoint x="161" y="5060" as="sourcePoint" />
            <mxPoint x="441" y="5060" as="targetPoint" />
            <Array as="points" />
            <mxPoint as="offset" />
          </mxGeometry>
        </mxCell>
        <mxCell id="FSEfA03kbgUQLvhoxwRy-119" value="Send Request For Document by link" style="html=1;verticalAlign=bottom;endArrow=block;curved=0;rounded=0;strokeColor=#457B9D;fontColor=#1D3557;fillColor=#A8DADC;" edge="1" parent="1">
          <mxGeometry x="0.0036" width="80" relative="1" as="geometry">
            <mxPoint x="440" y="5100" as="sourcePoint" />
            <mxPoint x="720" y="5100" as="targetPoint" />
            <Array as="points" />
            <mxPoint as="offset" />
          </mxGeometry>
        </mxCell>
        <mxCell id="FSEfA03kbgUQLvhoxwRy-120" value="Get Document by Link" style="html=1;verticalAlign=bottom;endArrow=block;curved=0;rounded=0;strokeColor=#457B9D;fontColor=#1D3557;fillColor=#A8DADC;" edge="1" parent="1">
          <mxGeometry x="0.0036" width="80" relative="1" as="geometry">
            <mxPoint x="723" y="5140" as="sourcePoint" />
            <mxPoint x="1565" y="5140" as="targetPoint" />
            <Array as="points" />
            <mxPoint as="offset" />
          </mxGeometry>
        </mxCell>
        <mxCell id="FSEfA03kbgUQLvhoxwRy-121" value="Send Requested Document" style="html=1;verticalAlign=bottom;endArrow=block;curved=0;rounded=0;strokeColor=#457B9D;fontColor=#1D3557;fillColor=#A8DADC;" edge="1" parent="1">
          <mxGeometry x="0.0036" width="80" relative="1" as="geometry">
            <mxPoint x="1565" y="5180" as="sourcePoint" />
            <mxPoint x="724" y="5180" as="targetPoint" />
            <Array as="points" />
            <mxPoint as="offset" />
          </mxGeometry>
        </mxCell>
        <mxCell id="FSEfA03kbgUQLvhoxwRy-122" value="Send Requested Document" style="html=1;verticalAlign=bottom;endArrow=block;curved=0;rounded=0;strokeColor=#457B9D;fontColor=#1D3557;fillColor=#A8DADC;" edge="1" parent="1">
          <mxGeometry x="0.0036" width="80" relative="1" as="geometry">
            <mxPoint x="725.5" y="5220" as="sourcePoint" />
            <mxPoint x="445" y="5220" as="targetPoint" />
            <Array as="points" />
            <mxPoint as="offset" />
          </mxGeometry>
        </mxCell>
        <mxCell id="FSEfA03kbgUQLvhoxwRy-123" value="Show Document in &#39;Editing&#39; Mode" style="html=1;verticalAlign=bottom;endArrow=block;curved=0;rounded=0;strokeColor=#457B9D;fontColor=#1D3557;fillColor=#A8DADC;" edge="1" parent="1">
          <mxGeometry x="0.0036" width="80" relative="1" as="geometry">
            <mxPoint x="440.25" y="5260" as="sourcePoint" />
            <mxPoint x="159.75" y="5260" as="targetPoint" />
            <Array as="points" />
            <mxPoint as="offset" />
          </mxGeometry>
        </mxCell>
        <mxCell id="FSEfA03kbgUQLvhoxwRy-124" value="Edit Document" style="html=1;verticalAlign=bottom;endArrow=block;curved=0;rounded=0;strokeColor=#457B9D;fontColor=#1D3557;fillColor=#A8DADC;" edge="1" parent="1">
          <mxGeometry x="0.0071" width="80" relative="1" as="geometry">
            <mxPoint x="160" y="5300" as="sourcePoint" />
            <mxPoint x="440" y="5300" as="targetPoint" />
            <Array as="points" />
            <mxPoint as="offset" />
          </mxGeometry>
        </mxCell>
        <mxCell id="FSEfA03kbgUQLvhoxwRy-125" value="Show &#39;Done&#39; Button" style="html=1;verticalAlign=bottom;endArrow=block;curved=0;rounded=0;strokeColor=#457B9D;fontColor=#1D3557;fillColor=#A8DADC;" edge="1" parent="1">
          <mxGeometry x="0.0071" width="80" relative="1" as="geometry">
            <mxPoint x="440" y="5340" as="sourcePoint" />
            <mxPoint x="160" y="5340" as="targetPoint" />
            <Array as="points" />
            <mxPoint as="offset" />
          </mxGeometry>
        </mxCell>
        <mxCell id="FSEfA03kbgUQLvhoxwRy-126" value="&#39;Done&#39; Button Pressed" style="html=1;verticalAlign=bottom;endArrow=block;curved=0;rounded=0;strokeColor=#457B9D;fontColor=#1D3557;fillColor=#A8DADC;" edge="1" parent="1">
          <mxGeometry x="0.0071" width="80" relative="1" as="geometry">
            <mxPoint x="160" y="5380" as="sourcePoint" />
            <mxPoint x="440" y="5380" as="targetPoint" />
            <Array as="points" />
            <mxPoint as="offset" />
          </mxGeometry>
        </mxCell>
        <mxCell id="FSEfA03kbgUQLvhoxwRy-127" value="Send Changed Document" style="html=1;verticalAlign=bottom;endArrow=block;curved=0;rounded=0;strokeColor=#457B9D;fontColor=#1D3557;fillColor=#A8DADC;" edge="1" parent="1">
          <mxGeometry x="0.0071" width="80" relative="1" as="geometry">
            <mxPoint x="440" y="5420" as="sourcePoint" />
            <mxPoint x="720" y="5420" as="targetPoint" />
            <Array as="points" />
            <mxPoint as="offset" />
          </mxGeometry>
        </mxCell>
        <mxCell id="FSEfA03kbgUQLvhoxwRy-129" value="Return User to Previous Menu and&amp;nbsp;&lt;br&gt;add &#39;Save Changes&#39; Button&amp;nbsp;to it" style="html=1;verticalAlign=bottom;endArrow=block;curved=0;rounded=0;strokeColor=#457B9D;fontColor=#1D3557;fillColor=#A8DADC;" edge="1" parent="1">
          <mxGeometry x="0.0071" width="80" relative="1" as="geometry">
            <mxPoint x="440" y="5540" as="sourcePoint" />
            <mxPoint x="160" y="5540" as="targetPoint" />
            <Array as="points" />
            <mxPoint as="offset" />
          </mxGeometry>
        </mxCell>
        <mxCell id="FSEfA03kbgUQLvhoxwRy-130" value="Return User to Previous Menu and&lt;br&gt;&amp;nbsp;add &#39;Respond to Complaint&#39; Button&amp;nbsp;to it" style="html=1;verticalAlign=bottom;endArrow=block;curved=0;rounded=0;strokeColor=#457B9D;fontColor=#1D3557;fillColor=#A8DADC;" edge="1" parent="1">
          <mxGeometry x="0.0071" width="80" relative="1" as="geometry">
            <mxPoint x="440" y="5670" as="sourcePoint" />
            <mxPoint x="160" y="5670" as="targetPoint" />
            <Array as="points" />
            <mxPoint as="offset" />
          </mxGeometry>
        </mxCell>
        <mxCell id="FSEfA03kbgUQLvhoxwRy-141" value="&#39;Save Changes&#39; Button Pressed" style="html=1;verticalAlign=bottom;endArrow=block;curved=0;rounded=0;strokeColor=#457B9D;fontColor=#1D3557;fillColor=#A8DADC;" edge="1" parent="1">
          <mxGeometry x="0.0071" width="80" relative="1" as="geometry">
            <mxPoint x="160" y="5830" as="sourcePoint" />
            <mxPoint x="440" y="5830" as="targetPoint" />
            <Array as="points" />
            <mxPoint as="offset" />
          </mxGeometry>
        </mxCell>
        <mxCell id="FSEfA03kbgUQLvhoxwRy-142" value="&#39;Respond to Complaint&#39; Button Pressed" style="html=1;verticalAlign=bottom;endArrow=block;curved=0;rounded=0;strokeColor=#457B9D;fontColor=#1D3557;fillColor=#A8DADC;" edge="1" parent="1">
          <mxGeometry x="0.0071" width="80" relative="1" as="geometry">
            <mxPoint x="160" y="5950" as="sourcePoint" />
            <mxPoint x="440" y="5950" as="targetPoint" />
            <Array as="points" />
            <mxPoint as="offset" />
          </mxGeometry>
        </mxCell>
        <mxCell id="FSEfA03kbgUQLvhoxwRy-143" value="Send Request To Apply Changes" style="html=1;verticalAlign=bottom;endArrow=block;curved=0;rounded=0;strokeColor=#457B9D;fontColor=#1D3557;fillColor=#A8DADC;" edge="1" parent="1">
          <mxGeometry x="0.0071" width="80" relative="1" as="geometry">
            <mxPoint x="440" y="6040" as="sourcePoint" />
            <mxPoint x="720" y="6040" as="targetPoint" />
            <Array as="points" />
            <mxPoint as="offset" />
          </mxGeometry>
        </mxCell>
        <mxCell id="FSEfA03kbgUQLvhoxwRy-144" value="Change &#39;Edited by (Login)&#39;&lt;br&gt;to Current User &#39;Login&#39;&lt;br&gt;for Selected Order" style="html=1;verticalAlign=bottom;endArrow=block;curved=0;rounded=0;strokeColor=#457B9D;fontColor=#1D3557;fillColor=#A8DADC;" edge="1" parent="1">
          <mxGeometry x="0.1667" width="80" relative="1" as="geometry">
            <mxPoint x="720" y="6080" as="sourcePoint" />
            <mxPoint x="720" y="6160" as="targetPoint" />
            <Array as="points">
              <mxPoint x="800" y="6080" />
              <mxPoint x="800" y="6160" />
            </Array>
            <mxPoint as="offset" />
          </mxGeometry>
        </mxCell>
        <mxCell id="FSEfA03kbgUQLvhoxwRy-145" value="Change &#39;Read Marker&#39;&lt;br&gt;to false&lt;br&gt;for Selected Order" style="html=1;verticalAlign=bottom;endArrow=block;curved=0;rounded=0;strokeColor=#457B9D;fontColor=#1D3557;fillColor=#A8DADC;" edge="1" parent="1">
          <mxGeometry x="0.1667" width="80" relative="1" as="geometry">
            <mxPoint x="720" y="6190" as="sourcePoint" />
            <mxPoint x="720" y="6270" as="targetPoint" />
            <Array as="points">
              <mxPoint x="800" y="6190" />
              <mxPoint x="800" y="6270" />
            </Array>
            <mxPoint as="offset" />
          </mxGeometry>
        </mxCell>
        <mxCell id="FSEfA03kbgUQLvhoxwRy-146" value="Change &#39;Edited Marker&#39;&lt;br&gt;to true&lt;br&gt;for Selected Order" style="html=1;verticalAlign=bottom;endArrow=block;curved=0;rounded=0;strokeColor=#457B9D;fontColor=#1D3557;fillColor=#A8DADC;" edge="1" parent="1">
          <mxGeometry x="0.1667" width="80" relative="1" as="geometry">
            <mxPoint x="720" y="6300" as="sourcePoint" />
            <mxPoint x="720" y="6380" as="targetPoint" />
            <Array as="points">
              <mxPoint x="800" y="6300" />
              <mxPoint x="800" y="6380" />
            </Array>
            <mxPoint as="offset" />
          </mxGeometry>
        </mxCell>
        <mxCell id="FSEfA03kbgUQLvhoxwRy-147" value="Change &#39;Bad Order Marker&#39;&lt;br&gt;to false&lt;br&gt;for Selected Order" style="html=1;verticalAlign=bottom;endArrow=block;curved=0;rounded=0;strokeColor=#457B9D;fontColor=#1D3557;fillColor=#A8DADC;" edge="1" parent="1">
          <mxGeometry x="0.1667" width="80" relative="1" as="geometry">
            <mxPoint x="720" y="6400" as="sourcePoint" />
            <mxPoint x="720" y="6480" as="targetPoint" />
            <Array as="points">
              <mxPoint x="800" y="6400" />
              <mxPoint x="800" y="6480" />
            </Array>
            <mxPoint as="offset" />
          </mxGeometry>
        </mxCell>
        <mxCell id="FSEfA03kbgUQLvhoxwRy-149" value="Send Notification To Task Manager to &#39;Return&#39;&amp;nbsp;&lt;br&gt;&amp;nbsp;&lt;span style=&quot;caret-color: rgb(0, 0, 0); color: rgb(0, 0, 0); background-color: rgb(251, 251, 251);&quot;&gt;each user that can possibly work with &lt;br&gt;Selected Order&amp;nbsp;&lt;/span&gt;at the Moment&lt;br style=&quot;border-color: var(--border-color); caret-color: rgb(0, 0, 0); color: rgb(0, 0, 0);&quot;&gt;&lt;span style=&quot;caret-color: rgb(0, 0, 0); color: rgb(0, 0, 0); background-color: rgb(251, 251, 251);&quot;&gt;(to prevent any work with old file)&lt;/span&gt;" style="html=1;verticalAlign=bottom;endArrow=block;curved=0;rounded=0;strokeColor=#457B9D;fontColor=#1D3557;fillColor=#A8DADC;" edge="1" parent="1">
          <mxGeometry x="0.0071" width="80" relative="1" as="geometry">
            <mxPoint x="720" y="6640" as="sourcePoint" />
            <mxPoint x="2120" y="6640" as="targetPoint" />
            <Array as="points" />
            <mxPoint as="offset" />
          </mxGeometry>
        </mxCell>
        <mxCell id="FSEfA03kbgUQLvhoxwRy-150" value="Replace File on The Server with a new one&lt;br&gt;(that one that was saved to array/structure/whatever else)" style="html=1;verticalAlign=bottom;endArrow=block;curved=0;rounded=0;strokeColor=#457B9D;fontColor=#1D3557;fillColor=#A8DADC;" edge="1" parent="1">
          <mxGeometry x="0.0071" width="80" relative="1" as="geometry">
            <mxPoint x="720" y="6680" as="sourcePoint" />
            <mxPoint x="1560" y="6680" as="targetPoint" />
            <Array as="points" />
            <mxPoint as="offset" />
          </mxGeometry>
        </mxCell>
        <mxCell id="FSEfA03kbgUQLvhoxwRy-151" value="Update &#39;Read Marker&#39;, &#39;Edited by (Login)&#39;, &#39;Edited Marker&#39;,&lt;br&gt;&#39;Bad Order Marker&#39; and &#39;Description&#39; for selected Order" style="html=1;verticalAlign=bottom;endArrow=block;curved=0;rounded=0;strokeColor=#457B9D;fontColor=#1D3557;fillColor=#A8DADC;" edge="1" parent="1">
          <mxGeometry x="0.0071" width="80" relative="1" as="geometry">
            <mxPoint x="720" y="6800" as="sourcePoint" />
            <mxPoint x="1840" y="6800" as="targetPoint" />
            <Array as="points" />
            <mxPoint as="offset" />
          </mxGeometry>
        </mxCell>
        <mxCell id="FSEfA03kbgUQLvhoxwRy-152" value="Apply Changes" style="html=1;verticalAlign=bottom;endArrow=block;curved=0;rounded=0;strokeColor=#457B9D;fontColor=#1D3557;fillColor=#A8DADC;" edge="1" parent="1">
          <mxGeometry width="80" relative="1" as="geometry">
            <mxPoint x="1840" y="6840" as="sourcePoint" />
            <mxPoint x="1280" y="6840" as="targetPoint" />
          </mxGeometry>
        </mxCell>
        <mxCell id="FSEfA03kbgUQLvhoxwRy-153" value="Send Transaction Result" style="html=1;verticalAlign=bottom;endArrow=block;curved=0;rounded=0;strokeColor=#457B9D;fontColor=#1D3557;fillColor=#A8DADC;" edge="1" parent="1">
          <mxGeometry width="80" relative="1" as="geometry">
            <mxPoint x="1840" y="6880" as="sourcePoint" />
            <mxPoint x="720" y="6880" as="targetPoint" />
          </mxGeometry>
        </mxCell>
        <mxCell id="FSEfA03kbgUQLvhoxwRy-157" value="Send Notification To Task Manager to Update&amp;nbsp;&lt;br&gt;&amp;nbsp;page for&amp;nbsp;&lt;span style=&quot;caret-color: rgb(0, 0, 0); color: rgb(0, 0, 0); background-color: rgb(251, 251, 251);&quot;&gt;each user that can possibly work with &lt;br&gt;&lt;/span&gt;selected Order at the moment" style="html=1;verticalAlign=bottom;endArrow=block;curved=0;rounded=0;strokeColor=#457B9D;fontColor=#1D3557;fillColor=#A8DADC;" edge="1" parent="1">
          <mxGeometry x="0.0071" width="80" relative="1" as="geometry">
            <mxPoint x="720" y="6990" as="sourcePoint" />
            <mxPoint x="2120" y="6990" as="targetPoint" />
            <Array as="points" />
            <mxPoint as="offset" />
          </mxGeometry>
        </mxCell>
        <mxCell id="FSEfA03kbgUQLvhoxwRy-161" value="&#39;Verify&#39; Button Pressed" style="html=1;verticalAlign=bottom;endArrow=block;curved=0;rounded=0;strokeColor=#457B9D;fontColor=#1D3557;fillColor=#A8DADC;" edge="1" parent="1">
          <mxGeometry width="80" relative="1" as="geometry">
            <mxPoint x="160" y="7160" as="sourcePoint" />
            <mxPoint x="440" y="7160" as="targetPoint" />
          </mxGeometry>
        </mxCell>
        <mxCell id="FSEfA03kbgUQLvhoxwRy-162" value="Send Request to Verify Order" style="html=1;verticalAlign=bottom;endArrow=block;curved=0;rounded=0;strokeColor=#457B9D;fontColor=#1D3557;fillColor=#A8DADC;" edge="1" parent="1">
          <mxGeometry width="80" relative="1" as="geometry">
            <mxPoint x="440" y="7200" as="sourcePoint" />
            <mxPoint x="720" y="7200" as="targetPoint" />
          </mxGeometry>
        </mxCell>
        <mxCell id="FSEfA03kbgUQLvhoxwRy-163" value="Change &#39;Verified Marker&#39; to true, &lt;br&gt;&#39;Sender (Login)&#39; to Current User &#39;Login&#39;,&lt;br&gt;for selected Order" style="html=1;verticalAlign=bottom;endArrow=block;curved=0;rounded=0;strokeColor=#457B9D;fontColor=#1D3557;fillColor=#A8DADC;" edge="1" parent="1">
          <mxGeometry width="80" relative="1" as="geometry">
            <mxPoint x="720" y="7279" as="sourcePoint" />
            <mxPoint x="1840" y="7279" as="targetPoint" />
          </mxGeometry>
        </mxCell>
        <mxCell id="FSEfA03kbgUQLvhoxwRy-164" value="Send Notification To Task Manager to Update&amp;nbsp;&lt;br&gt;&amp;nbsp;page for&amp;nbsp;&lt;span style=&quot;caret-color: rgb(0, 0, 0); color: rgb(0, 0, 0); background-color: rgb(251, 251, 251);&quot;&gt;each user that can possibly work with &lt;br&gt;&lt;/span&gt;selected Order at the moment" style="html=1;verticalAlign=bottom;endArrow=block;curved=0;rounded=0;strokeColor=#457B9D;fontColor=#1D3557;fillColor=#A8DADC;" edge="1" parent="1">
          <mxGeometry x="0.0071" width="80" relative="1" as="geometry">
            <mxPoint x="718" y="7459" as="sourcePoint" />
            <mxPoint x="2118" y="7459" as="targetPoint" />
            <Array as="points" />
            <mxPoint as="offset" />
          </mxGeometry>
        </mxCell>
        <mxCell id="FSEfA03kbgUQLvhoxwRy-166" value="Apply Changes" style="html=1;verticalAlign=bottom;endArrow=block;curved=0;rounded=0;strokeColor=#457B9D;fontColor=#1D3557;fillColor=#A8DADC;" edge="1" parent="1">
          <mxGeometry width="80" relative="1" as="geometry">
            <mxPoint x="1840" y="7319" as="sourcePoint" />
            <mxPoint x="1280" y="7319" as="targetPoint" />
          </mxGeometry>
        </mxCell>
        <mxCell id="FSEfA03kbgUQLvhoxwRy-167" value="Send Transaction Result" style="html=1;verticalAlign=bottom;endArrow=block;curved=0;rounded=0;strokeColor=#457B9D;fontColor=#1D3557;fillColor=#A8DADC;" edge="1" parent="1">
          <mxGeometry width="80" relative="1" as="geometry">
            <mxPoint x="1840" y="7359" as="sourcePoint" />
            <mxPoint x="720" y="7359" as="targetPoint" />
          </mxGeometry>
        </mxCell>
        <mxCell id="FSEfA03kbgUQLvhoxwRy-168" value="Loop" style="shape=umlFrame;whiteSpace=wrap;html=1;pointerEvents=0;strokeColor=#457B9D;fontColor=#1D3557;fillColor=#A8DADC;" vertex="1" parent="1">
          <mxGeometry x="670" y="7210" width="1200" height="190" as="geometry" />
        </mxCell>
        <mxCell id="FSEfA03kbgUQLvhoxwRy-169" value="[While Transaction Falis]" style="text;html=1;strokeColor=none;fillColor=none;align=center;verticalAlign=middle;whiteSpace=wrap;rounded=0;fontColor=#1D3557;" vertex="1" parent="1">
          <mxGeometry x="740" y="7220" width="150" height="30" as="geometry" />
        </mxCell>
        <mxCell id="FSEfA03kbgUQLvhoxwRy-172" value="" style="endArrow=none;dashed=1;html=1;dashPattern=1 3;strokeWidth=2;rounded=0;strokeColor=#457B9D;fontColor=#1D3557;fillColor=#A8DADC;entryX=0.5;entryY=0.5;entryDx=0;entryDy=0;entryPerimeter=0;" edge="1" parent="1" source="FSEfA03kbgUQLvhoxwRy-184" target="FSEfA03kbgUQLvhoxwRy-173">
          <mxGeometry width="50" height="50" relative="1" as="geometry">
            <mxPoint x="160" y="7561" as="sourcePoint" />
            <mxPoint x="160" y="150" as="targetPoint" />
          </mxGeometry>
        </mxCell>
        <mxCell id="FSEfA03kbgUQLvhoxwRy-173" value="" style="html=1;points=[[0,0,0,0,5],[0,1,0,0,-5],[1,0,0,0,5],[1,1,0,0,-5]];perimeter=orthogonalPerimeter;outlineConnect=0;targetShapes=umlLifeline;portConstraint=eastwest;newEdgeStyle={&quot;curved&quot;:0,&quot;rounded&quot;:0};strokeColor=#457B9D;fontColor=#1D3557;fillColor=#A8DADC;" vertex="1" parent="1">
          <mxGeometry x="155" y="220" width="10" height="20" as="geometry" />
        </mxCell>
        <mxCell id="FSEfA03kbgUQLvhoxwRy-175" value="" style="endArrow=none;dashed=1;html=1;dashPattern=1 3;strokeWidth=2;rounded=0;strokeColor=#457B9D;fontColor=#1D3557;fillColor=#A8DADC;entryX=0.486;entryY=1.05;entryDx=0;entryDy=0;entryPerimeter=0;" edge="1" parent="1" source="FSEfA03kbgUQLvhoxwRy-182" target="FSEfA03kbgUQLvhoxwRy-174">
          <mxGeometry width="50" height="50" relative="1" as="geometry">
            <mxPoint x="439" y="7561" as="sourcePoint" />
            <mxPoint x="439" y="193" as="targetPoint" />
          </mxGeometry>
        </mxCell>
        <mxCell id="FSEfA03kbgUQLvhoxwRy-174" value="" style="html=1;points=[[0,0,0,0,5],[0,1,0,0,-5],[1,0,0,0,5],[1,1,0,0,-5]];perimeter=orthogonalPerimeter;outlineConnect=0;targetShapes=umlLifeline;portConstraint=eastwest;newEdgeStyle={&quot;curved&quot;:0,&quot;rounded&quot;:0};strokeColor=#457B9D;fontColor=#1D3557;fillColor=#A8DADC;" vertex="1" parent="1">
          <mxGeometry x="435" y="240" width="10" height="40" as="geometry" />
        </mxCell>
        <mxCell id="FSEfA03kbgUQLvhoxwRy-177" value="" style="endArrow=none;dashed=1;html=1;dashPattern=1 3;strokeWidth=2;rounded=0;strokeColor=#457B9D;fontColor=#1D3557;fillColor=#A8DADC;" edge="1" parent="1" source="FSEfA03kbgUQLvhoxwRy-180" target="FSEfA03kbgUQLvhoxwRy-176">
          <mxGeometry width="50" height="50" relative="1" as="geometry">
            <mxPoint x="720" y="7560" as="sourcePoint" />
            <mxPoint x="720" y="195" as="targetPoint" />
          </mxGeometry>
        </mxCell>
        <mxCell id="FSEfA03kbgUQLvhoxwRy-176" value="" style="html=1;points=[[0,0,0,0,5],[0,1,0,0,-5],[1,0,0,0,5],[1,1,0,0,-5]];perimeter=orthogonalPerimeter;outlineConnect=0;targetShapes=umlLifeline;portConstraint=eastwest;newEdgeStyle={&quot;curved&quot;:0,&quot;rounded&quot;:0};strokeColor=#457B9D;fontColor=#1D3557;fillColor=#A8DADC;" vertex="1" parent="1">
          <mxGeometry x="715" y="280" width="10" height="40" as="geometry" />
        </mxCell>
        <mxCell id="FSEfA03kbgUQLvhoxwRy-179" value="" style="endArrow=none;dashed=1;html=1;dashPattern=1 3;strokeWidth=2;rounded=0;strokeColor=#457B9D;fontColor=#1D3557;fillColor=#A8DADC;entryX=0.5;entryY=1;entryDx=0;entryDy=0;" edge="1" parent="1" target="FSEfA03kbgUQLvhoxwRy-178">
          <mxGeometry width="50" height="50" relative="1" as="geometry">
            <mxPoint x="1000" y="7560" as="sourcePoint" />
            <mxPoint x="1000" y="195" as="targetPoint" />
          </mxGeometry>
        </mxCell>
        <mxCell id="FSEfA03kbgUQLvhoxwRy-178" value="" style="html=1;points=[[0,0,0,0,5],[0,1,0,0,-5],[1,0,0,0,5],[1,1,0,0,-5]];perimeter=orthogonalPerimeter;outlineConnect=0;targetShapes=umlLifeline;portConstraint=eastwest;newEdgeStyle={&quot;curved&quot;:0,&quot;rounded&quot;:0};strokeColor=#457B9D;fontColor=#1D3557;fillColor=#A8DADC;" vertex="1" parent="1">
          <mxGeometry x="995" y="340" width="10" height="100" as="geometry" />
        </mxCell>
        <mxCell id="FSEfA03kbgUQLvhoxwRy-181" value="" style="endArrow=none;dashed=1;html=1;dashPattern=1 3;strokeWidth=2;rounded=0;strokeColor=#457B9D;fontColor=#1D3557;fillColor=#A8DADC;" edge="1" parent="1" source="FSEfA03kbgUQLvhoxwRy-188" target="FSEfA03kbgUQLvhoxwRy-180">
          <mxGeometry width="50" height="50" relative="1" as="geometry">
            <mxPoint x="720" y="7560" as="sourcePoint" />
            <mxPoint x="720" y="320" as="targetPoint" />
          </mxGeometry>
        </mxCell>
        <mxCell id="FSEfA03kbgUQLvhoxwRy-180" value="" style="html=1;points=[[0,0,0,0,5],[0,1,0,0,-5],[1,0,0,0,5],[1,1,0,0,-5]];perimeter=orthogonalPerimeter;outlineConnect=0;targetShapes=umlLifeline;portConstraint=eastwest;newEdgeStyle={&quot;curved&quot;:0,&quot;rounded&quot;:0};strokeColor=#457B9D;fontColor=#1D3557;fillColor=#A8DADC;" vertex="1" parent="1">
          <mxGeometry x="715" y="480" width="10" height="40" as="geometry" />
        </mxCell>
        <mxCell id="FSEfA03kbgUQLvhoxwRy-183" value="" style="endArrow=none;dashed=1;html=1;dashPattern=1 3;strokeWidth=2;rounded=0;strokeColor=#457B9D;fontColor=#1D3557;fillColor=#A8DADC;entryX=0.486;entryY=1.05;entryDx=0;entryDy=0;entryPerimeter=0;" edge="1" parent="1" source="FSEfA03kbgUQLvhoxwRy-186" target="FSEfA03kbgUQLvhoxwRy-182">
          <mxGeometry width="50" height="50" relative="1" as="geometry">
            <mxPoint x="439" y="7561" as="sourcePoint" />
            <mxPoint x="440" y="282" as="targetPoint" />
          </mxGeometry>
        </mxCell>
        <mxCell id="FSEfA03kbgUQLvhoxwRy-182" value="" style="html=1;points=[[0,0,0,0,5],[0,1,0,0,-5],[1,0,0,0,5],[1,1,0,0,-5]];perimeter=orthogonalPerimeter;outlineConnect=0;targetShapes=umlLifeline;portConstraint=eastwest;newEdgeStyle={&quot;curved&quot;:0,&quot;rounded&quot;:0};strokeColor=#457B9D;fontColor=#1D3557;fillColor=#A8DADC;" vertex="1" parent="1">
          <mxGeometry x="435" y="520" width="10" height="40" as="geometry" />
        </mxCell>
        <mxCell id="FSEfA03kbgUQLvhoxwRy-185" value="" style="endArrow=none;dashed=1;html=1;dashPattern=1 3;strokeWidth=2;rounded=0;strokeColor=#457B9D;fontColor=#1D3557;fillColor=#A8DADC;entryX=0.5;entryY=0.5;entryDx=0;entryDy=0;entryPerimeter=0;" edge="1" parent="1" source="FSEfA03kbgUQLvhoxwRy-196" target="FSEfA03kbgUQLvhoxwRy-184">
          <mxGeometry width="50" height="50" relative="1" as="geometry">
            <mxPoint x="160" y="7561" as="sourcePoint" />
            <mxPoint x="160" y="230" as="targetPoint" />
          </mxGeometry>
        </mxCell>
        <mxCell id="FSEfA03kbgUQLvhoxwRy-184" value="" style="html=1;points=[[0,0,0,0,5],[0,1,0,0,-5],[1,0,0,0,5],[1,1,0,0,-5]];perimeter=orthogonalPerimeter;outlineConnect=0;targetShapes=umlLifeline;portConstraint=eastwest;newEdgeStyle={&quot;curved&quot;:0,&quot;rounded&quot;:0};strokeColor=#457B9D;fontColor=#1D3557;fillColor=#A8DADC;" vertex="1" parent="1">
          <mxGeometry x="155" y="560" width="10" height="40" as="geometry" />
        </mxCell>
        <mxCell id="FSEfA03kbgUQLvhoxwRy-187" value="" style="endArrow=none;dashed=1;html=1;dashPattern=1 3;strokeWidth=2;rounded=0;strokeColor=#457B9D;fontColor=#1D3557;fillColor=#A8DADC;entryX=0.486;entryY=1.05;entryDx=0;entryDy=0;entryPerimeter=0;" edge="1" parent="1" source="FSEfA03kbgUQLvhoxwRy-195" target="FSEfA03kbgUQLvhoxwRy-186">
          <mxGeometry width="50" height="50" relative="1" as="geometry">
            <mxPoint x="439" y="7561" as="sourcePoint" />
            <mxPoint x="440" y="562" as="targetPoint" />
          </mxGeometry>
        </mxCell>
        <mxCell id="FSEfA03kbgUQLvhoxwRy-186" value="" style="html=1;points=[[0,0,0,0,5],[0,1,0,0,-5],[1,0,0,0,5],[1,1,0,0,-5]];perimeter=orthogonalPerimeter;outlineConnect=0;targetShapes=umlLifeline;portConstraint=eastwest;newEdgeStyle={&quot;curved&quot;:0,&quot;rounded&quot;:0};strokeColor=#457B9D;fontColor=#1D3557;fillColor=#A8DADC;" vertex="1" parent="1">
          <mxGeometry x="435" y="600" width="10" height="40" as="geometry" />
        </mxCell>
        <mxCell id="FSEfA03kbgUQLvhoxwRy-189" value="" style="endArrow=none;dashed=1;html=1;dashPattern=1 3;strokeWidth=2;rounded=0;strokeColor=#457B9D;fontColor=#1D3557;fillColor=#A8DADC;" edge="1" parent="1" source="FSEfA03kbgUQLvhoxwRy-192" target="FSEfA03kbgUQLvhoxwRy-188">
          <mxGeometry width="50" height="50" relative="1" as="geometry">
            <mxPoint x="720" y="7560" as="sourcePoint" />
            <mxPoint x="720" y="520" as="targetPoint" />
          </mxGeometry>
        </mxCell>
        <mxCell id="FSEfA03kbgUQLvhoxwRy-188" value="" style="html=1;points=[[0,0,0,0,5],[0,1,0,0,-5],[1,0,0,0,5],[1,1,0,0,-5]];perimeter=orthogonalPerimeter;outlineConnect=0;targetShapes=umlLifeline;portConstraint=eastwest;newEdgeStyle={&quot;curved&quot;:0,&quot;rounded&quot;:0};strokeColor=#457B9D;fontColor=#1D3557;fillColor=#A8DADC;" vertex="1" parent="1">
          <mxGeometry x="715" y="640" width="10" height="40" as="geometry" />
        </mxCell>
        <mxCell id="FSEfA03kbgUQLvhoxwRy-191" value="" style="endArrow=none;dashed=1;html=1;dashPattern=1 3;strokeWidth=2;rounded=0;strokeColor=#457B9D;fontColor=#1D3557;fillColor=#A8DADC;entryX=0.5;entryY=1;entryDx=0;entryDy=0;" edge="1" parent="1" source="FSEfA03kbgUQLvhoxwRy-294" target="FSEfA03kbgUQLvhoxwRy-190">
          <mxGeometry width="50" height="50" relative="1" as="geometry">
            <mxPoint x="1280" y="7560" as="sourcePoint" />
            <mxPoint x="1280" y="195" as="targetPoint" />
          </mxGeometry>
        </mxCell>
        <mxCell id="FSEfA03kbgUQLvhoxwRy-190" value="" style="html=1;points=[[0,0,0,0,5],[0,1,0,0,-5],[1,0,0,0,5],[1,1,0,0,-5]];perimeter=orthogonalPerimeter;outlineConnect=0;targetShapes=umlLifeline;portConstraint=eastwest;newEdgeStyle={&quot;curved&quot;:0,&quot;rounded&quot;:0};strokeColor=#457B9D;fontColor=#1D3557;fillColor=#A8DADC;" vertex="1" parent="1">
          <mxGeometry x="1275" y="700" width="10" height="100" as="geometry" />
        </mxCell>
        <mxCell id="FSEfA03kbgUQLvhoxwRy-193" value="" style="endArrow=none;dashed=1;html=1;dashPattern=1 3;strokeWidth=2;rounded=0;strokeColor=#457B9D;fontColor=#1D3557;fillColor=#A8DADC;" edge="1" parent="1" source="FSEfA03kbgUQLvhoxwRy-200" target="FSEfA03kbgUQLvhoxwRy-192">
          <mxGeometry width="50" height="50" relative="1" as="geometry">
            <mxPoint x="720" y="7560" as="sourcePoint" />
            <mxPoint x="720" y="680" as="targetPoint" />
          </mxGeometry>
        </mxCell>
        <mxCell id="FSEfA03kbgUQLvhoxwRy-192" value="" style="html=1;points=[[0,0,0,0,5],[0,1,0,0,-5],[1,0,0,0,5],[1,1,0,0,-5]];perimeter=orthogonalPerimeter;outlineConnect=0;targetShapes=umlLifeline;portConstraint=eastwest;newEdgeStyle={&quot;curved&quot;:0,&quot;rounded&quot;:0};strokeColor=#457B9D;fontColor=#1D3557;fillColor=#A8DADC;" vertex="1" parent="1">
          <mxGeometry x="715" y="880" width="10" height="90" as="geometry" />
        </mxCell>
        <mxCell id="FSEfA03kbgUQLvhoxwRy-33" value="Form Orders &#39;Name&#39; List&lt;br&gt;(find last index of &#39;/&#39; &amp;nbsp;in &#39;link&#39; &lt;br&gt;and delete everything up to it, including &lt;br&gt;it and extension )" style="html=1;verticalAlign=bottom;endArrow=block;curved=0;rounded=0;strokeColor=#457B9D;fontColor=#1D3557;fillColor=#A8DADC;" edge="1" parent="1">
          <mxGeometry x="0.1538" width="80" relative="1" as="geometry">
            <mxPoint x="720" y="880" as="sourcePoint" />
            <mxPoint x="720" y="980" as="targetPoint" />
            <Array as="points">
              <mxPoint x="800" y="880" />
              <mxPoint x="800" y="980" />
            </Array>
            <mxPoint as="offset" />
          </mxGeometry>
        </mxCell>
        <mxCell id="FSEfA03kbgUQLvhoxwRy-194" value="" style="endArrow=none;dashed=1;html=1;dashPattern=1 3;strokeWidth=2;rounded=0;strokeColor=#457B9D;fontColor=#1D3557;fillColor=#A8DADC;entryX=0.486;entryY=1.05;entryDx=0;entryDy=0;entryPerimeter=0;" edge="1" parent="1" source="FSEfA03kbgUQLvhoxwRy-198" target="FSEfA03kbgUQLvhoxwRy-195">
          <mxGeometry width="50" height="50" relative="1" as="geometry">
            <mxPoint x="439" y="7561" as="sourcePoint" />
            <mxPoint x="440" y="642" as="targetPoint" />
          </mxGeometry>
        </mxCell>
        <mxCell id="FSEfA03kbgUQLvhoxwRy-195" value="" style="html=1;points=[[0,0,0,0,5],[0,1,0,0,-5],[1,0,0,0,5],[1,1,0,0,-5]];perimeter=orthogonalPerimeter;outlineConnect=0;targetShapes=umlLifeline;portConstraint=eastwest;newEdgeStyle={&quot;curved&quot;:0,&quot;rounded&quot;:0};strokeColor=#457B9D;fontColor=#1D3557;fillColor=#A8DADC;" vertex="1" parent="1">
          <mxGeometry x="435" y="1040" width="10" height="80" as="geometry" />
        </mxCell>
        <mxCell id="FSEfA03kbgUQLvhoxwRy-197" value="" style="endArrow=none;dashed=1;html=1;dashPattern=1 3;strokeWidth=2;rounded=0;strokeColor=#457B9D;fontColor=#1D3557;fillColor=#A8DADC;entryX=0.5;entryY=0.5;entryDx=0;entryDy=0;entryPerimeter=0;" edge="1" parent="1" source="FSEfA03kbgUQLvhoxwRy-208" target="FSEfA03kbgUQLvhoxwRy-196">
          <mxGeometry width="50" height="50" relative="1" as="geometry">
            <mxPoint x="160" y="7561" as="sourcePoint" />
            <mxPoint x="160" y="580" as="targetPoint" />
          </mxGeometry>
        </mxCell>
        <mxCell id="FSEfA03kbgUQLvhoxwRy-196" value="" style="html=1;points=[[0,0,0,0,5],[0,1,0,0,-5],[1,0,0,0,5],[1,1,0,0,-5]];perimeter=orthogonalPerimeter;outlineConnect=0;targetShapes=umlLifeline;portConstraint=eastwest;newEdgeStyle={&quot;curved&quot;:0,&quot;rounded&quot;:0};strokeColor=#457B9D;fontColor=#1D3557;fillColor=#A8DADC;" vertex="1" parent="1">
          <mxGeometry x="155" y="1120" width="10" height="40" as="geometry" />
        </mxCell>
        <mxCell id="FSEfA03kbgUQLvhoxwRy-199" value="" style="endArrow=none;dashed=1;html=1;dashPattern=1 3;strokeWidth=2;rounded=0;strokeColor=#457B9D;fontColor=#1D3557;fillColor=#A8DADC;entryX=0.486;entryY=1.05;entryDx=0;entryDy=0;entryPerimeter=0;" edge="1" parent="1" source="FSEfA03kbgUQLvhoxwRy-205" target="FSEfA03kbgUQLvhoxwRy-198">
          <mxGeometry width="50" height="50" relative="1" as="geometry">
            <mxPoint x="439" y="7561" as="sourcePoint" />
            <mxPoint x="440" y="1124" as="targetPoint" />
          </mxGeometry>
        </mxCell>
        <mxCell id="FSEfA03kbgUQLvhoxwRy-198" value="" style="html=1;points=[[0,0,0,0,5],[0,1,0,0,-5],[1,0,0,0,5],[1,1,0,0,-5]];perimeter=orthogonalPerimeter;outlineConnect=0;targetShapes=umlLifeline;portConstraint=eastwest;newEdgeStyle={&quot;curved&quot;:0,&quot;rounded&quot;:0};strokeColor=#457B9D;fontColor=#1D3557;fillColor=#A8DADC;" vertex="1" parent="1">
          <mxGeometry x="435" y="1160" width="10" height="40" as="geometry" />
        </mxCell>
        <mxCell id="FSEfA03kbgUQLvhoxwRy-201" value="" style="endArrow=none;dashed=1;html=1;dashPattern=1 3;strokeWidth=2;rounded=0;strokeColor=#457B9D;fontColor=#1D3557;fillColor=#A8DADC;" edge="1" parent="1" source="FSEfA03kbgUQLvhoxwRy-203" target="FSEfA03kbgUQLvhoxwRy-200">
          <mxGeometry width="50" height="50" relative="1" as="geometry">
            <mxPoint x="720" y="7560" as="sourcePoint" />
            <mxPoint x="720" y="970" as="targetPoint" />
          </mxGeometry>
        </mxCell>
        <mxCell id="FSEfA03kbgUQLvhoxwRy-200" value="" style="html=1;points=[[0,0,0,0,5],[0,1,0,0,-5],[1,0,0,0,5],[1,1,0,0,-5]];perimeter=orthogonalPerimeter;outlineConnect=0;targetShapes=umlLifeline;portConstraint=eastwest;newEdgeStyle={&quot;curved&quot;:0,&quot;rounded&quot;:0};strokeColor=#457B9D;fontColor=#1D3557;fillColor=#A8DADC;" vertex="1" parent="1">
          <mxGeometry x="715" y="1200" width="10" height="40" as="geometry" />
        </mxCell>
        <mxCell id="FSEfA03kbgUQLvhoxwRy-202" value="" style="html=1;points=[[0,0,0,0,5],[0,1,0,0,-5],[1,0,0,0,5],[1,1,0,0,-5]];perimeter=orthogonalPerimeter;outlineConnect=0;targetShapes=umlLifeline;portConstraint=eastwest;newEdgeStyle={&quot;curved&quot;:0,&quot;rounded&quot;:0};strokeColor=#457B9D;fontColor=#1D3557;fillColor=#A8DADC;" vertex="1" parent="1">
          <mxGeometry x="1275" y="1240" width="10" height="80" as="geometry" />
        </mxCell>
        <mxCell id="FSEfA03kbgUQLvhoxwRy-204" value="" style="endArrow=none;dashed=1;html=1;dashPattern=1 3;strokeWidth=2;rounded=0;strokeColor=#457B9D;fontColor=#1D3557;fillColor=#A8DADC;" edge="1" parent="1" source="FSEfA03kbgUQLvhoxwRy-229" target="FSEfA03kbgUQLvhoxwRy-203">
          <mxGeometry width="50" height="50" relative="1" as="geometry">
            <mxPoint x="720" y="7560" as="sourcePoint" />
            <mxPoint x="720" y="1240" as="targetPoint" />
          </mxGeometry>
        </mxCell>
        <mxCell id="FSEfA03kbgUQLvhoxwRy-203" value="" style="html=1;points=[[0,0,0,0,5],[0,1,0,0,-5],[1,0,0,0,5],[1,1,0,0,-5]];perimeter=orthogonalPerimeter;outlineConnect=0;targetShapes=umlLifeline;portConstraint=eastwest;newEdgeStyle={&quot;curved&quot;:0,&quot;rounded&quot;:0};strokeColor=#457B9D;fontColor=#1D3557;fillColor=#A8DADC;" vertex="1" parent="1">
          <mxGeometry x="715" y="1320" width="10" height="40" as="geometry" />
        </mxCell>
        <mxCell id="FSEfA03kbgUQLvhoxwRy-206" value="" style="endArrow=none;dashed=1;html=1;dashPattern=1 3;strokeWidth=2;rounded=0;strokeColor=#457B9D;fontColor=#1D3557;fillColor=#A8DADC;entryX=0.486;entryY=1.05;entryDx=0;entryDy=0;entryPerimeter=0;" edge="1" parent="1" source="FSEfA03kbgUQLvhoxwRy-227" target="FSEfA03kbgUQLvhoxwRy-205">
          <mxGeometry width="50" height="50" relative="1" as="geometry">
            <mxPoint x="439" y="7561" as="sourcePoint" />
            <mxPoint x="440" y="1202" as="targetPoint" />
          </mxGeometry>
        </mxCell>
        <mxCell id="FSEfA03kbgUQLvhoxwRy-205" value="" style="html=1;points=[[0,0,0,0,5],[0,1,0,0,-5],[1,0,0,0,5],[1,1,0,0,-5]];perimeter=orthogonalPerimeter;outlineConnect=0;targetShapes=umlLifeline;portConstraint=eastwest;newEdgeStyle={&quot;curved&quot;:0,&quot;rounded&quot;:0};strokeColor=#457B9D;fontColor=#1D3557;fillColor=#A8DADC;" vertex="1" parent="1">
          <mxGeometry x="435" y="1785" width="10" height="35" as="geometry" />
        </mxCell>
        <mxCell id="FSEfA03kbgUQLvhoxwRy-207" value="" style="endArrow=none;dashed=1;html=1;dashPattern=1 3;strokeWidth=2;rounded=0;strokeColor=#457B9D;fontColor=#1D3557;fillColor=#A8DADC;entryX=0.5;entryY=0.5;entryDx=0;entryDy=0;entryPerimeter=0;" edge="1" parent="1" source="FSEfA03kbgUQLvhoxwRy-210" target="FSEfA03kbgUQLvhoxwRy-208">
          <mxGeometry width="50" height="50" relative="1" as="geometry">
            <mxPoint x="160" y="7561" as="sourcePoint" />
            <mxPoint x="160" y="1140" as="targetPoint" />
          </mxGeometry>
        </mxCell>
        <mxCell id="FSEfA03kbgUQLvhoxwRy-208" value="" style="html=1;points=[[0,0,0,0,5],[0,1,0,0,-5],[1,0,0,0,5],[1,1,0,0,-5]];perimeter=orthogonalPerimeter;outlineConnect=0;targetShapes=umlLifeline;portConstraint=eastwest;newEdgeStyle={&quot;curved&quot;:0,&quot;rounded&quot;:0};strokeColor=#457B9D;fontColor=#1D3557;fillColor=#A8DADC;" vertex="1" parent="1">
          <mxGeometry x="155" y="1940" width="10" height="40" as="geometry" />
        </mxCell>
        <mxCell id="FSEfA03kbgUQLvhoxwRy-209" value="" style="endArrow=none;dashed=1;html=1;dashPattern=1 3;strokeWidth=2;rounded=0;strokeColor=#457B9D;fontColor=#1D3557;fillColor=#A8DADC;entryX=0.5;entryY=0.5;entryDx=0;entryDy=0;entryPerimeter=0;" edge="1" parent="1" source="FSEfA03kbgUQLvhoxwRy-211" target="FSEfA03kbgUQLvhoxwRy-210">
          <mxGeometry width="50" height="50" relative="1" as="geometry">
            <mxPoint x="160" y="7561" as="sourcePoint" />
            <mxPoint x="160" y="1960" as="targetPoint" />
          </mxGeometry>
        </mxCell>
        <mxCell id="FSEfA03kbgUQLvhoxwRy-210" value="" style="html=1;points=[[0,0,0,0,5],[0,1,0,0,-5],[1,0,0,0,5],[1,1,0,0,-5]];perimeter=orthogonalPerimeter;outlineConnect=0;targetShapes=umlLifeline;portConstraint=eastwest;newEdgeStyle={&quot;curved&quot;:0,&quot;rounded&quot;:0};strokeColor=#457B9D;fontColor=#1D3557;fillColor=#A8DADC;" vertex="1" parent="1">
          <mxGeometry x="155" y="2120" width="10" height="40" as="geometry" />
        </mxCell>
        <mxCell id="FSEfA03kbgUQLvhoxwRy-212" value="" style="endArrow=none;dashed=1;html=1;dashPattern=1 3;strokeWidth=2;rounded=0;strokeColor=#457B9D;fontColor=#1D3557;fillColor=#A8DADC;entryX=0.5;entryY=0.5;entryDx=0;entryDy=0;entryPerimeter=0;" edge="1" parent="1" source="FSEfA03kbgUQLvhoxwRy-213" target="FSEfA03kbgUQLvhoxwRy-211">
          <mxGeometry width="50" height="50" relative="1" as="geometry">
            <mxPoint x="160" y="7561" as="sourcePoint" />
            <mxPoint x="160" y="2140" as="targetPoint" />
          </mxGeometry>
        </mxCell>
        <mxCell id="FSEfA03kbgUQLvhoxwRy-211" value="" style="html=1;points=[[0,0,0,0,5],[0,1,0,0,-5],[1,0,0,0,5],[1,1,0,0,-5]];perimeter=orthogonalPerimeter;outlineConnect=0;targetShapes=umlLifeline;portConstraint=eastwest;newEdgeStyle={&quot;curved&quot;:0,&quot;rounded&quot;:0};strokeColor=#457B9D;fontColor=#1D3557;fillColor=#A8DADC;" vertex="1" parent="1">
          <mxGeometry x="155" y="2300" width="10" height="60" as="geometry" />
        </mxCell>
        <mxCell id="FSEfA03kbgUQLvhoxwRy-214" value="" style="endArrow=none;dashed=1;html=1;dashPattern=1 3;strokeWidth=2;rounded=0;strokeColor=#457B9D;fontColor=#1D3557;fillColor=#A8DADC;entryX=0.5;entryY=0.5;entryDx=0;entryDy=0;entryPerimeter=0;" edge="1" parent="1" source="FSEfA03kbgUQLvhoxwRy-215" target="FSEfA03kbgUQLvhoxwRy-213">
          <mxGeometry width="50" height="50" relative="1" as="geometry">
            <mxPoint x="160" y="7561" as="sourcePoint" />
            <mxPoint x="160" y="2330" as="targetPoint" />
          </mxGeometry>
        </mxCell>
        <mxCell id="FSEfA03kbgUQLvhoxwRy-213" value="" style="html=1;points=[[0,0,0,0,5],[0,1,0,0,-5],[1,0,0,0,5],[1,1,0,0,-5]];perimeter=orthogonalPerimeter;outlineConnect=0;targetShapes=umlLifeline;portConstraint=eastwest;newEdgeStyle={&quot;curved&quot;:0,&quot;rounded&quot;:0};strokeColor=#457B9D;fontColor=#1D3557;fillColor=#A8DADC;" vertex="1" parent="1">
          <mxGeometry x="155" y="2510" width="10" height="30" as="geometry" />
        </mxCell>
        <mxCell id="FSEfA03kbgUQLvhoxwRy-216" value="" style="endArrow=none;dashed=1;html=1;dashPattern=1 3;strokeWidth=2;rounded=0;strokeColor=#457B9D;fontColor=#1D3557;fillColor=#A8DADC;entryX=0.5;entryY=0.5;entryDx=0;entryDy=0;entryPerimeter=0;" edge="1" parent="1" source="FSEfA03kbgUQLvhoxwRy-217" target="FSEfA03kbgUQLvhoxwRy-215">
          <mxGeometry width="50" height="50" relative="1" as="geometry">
            <mxPoint x="160" y="7561" as="sourcePoint" />
            <mxPoint x="160" y="2525" as="targetPoint" />
          </mxGeometry>
        </mxCell>
        <mxCell id="FSEfA03kbgUQLvhoxwRy-215" value="" style="html=1;points=[[0,0,0,0,5],[0,1,0,0,-5],[1,0,0,0,5],[1,1,0,0,-5]];perimeter=orthogonalPerimeter;outlineConnect=0;targetShapes=umlLifeline;portConstraint=eastwest;newEdgeStyle={&quot;curved&quot;:0,&quot;rounded&quot;:0};strokeColor=#457B9D;fontColor=#1D3557;fillColor=#A8DADC;" vertex="1" parent="1">
          <mxGeometry x="155" y="2700" width="10" height="30" as="geometry" />
        </mxCell>
        <mxCell id="FSEfA03kbgUQLvhoxwRy-218" value="" style="endArrow=none;dashed=1;html=1;dashPattern=1 3;strokeWidth=2;rounded=0;strokeColor=#457B9D;fontColor=#1D3557;fillColor=#A8DADC;entryX=0.5;entryY=0.5;entryDx=0;entryDy=0;entryPerimeter=0;" edge="1" parent="1" source="FSEfA03kbgUQLvhoxwRy-219" target="FSEfA03kbgUQLvhoxwRy-217">
          <mxGeometry width="50" height="50" relative="1" as="geometry">
            <mxPoint x="160" y="7561" as="sourcePoint" />
            <mxPoint x="160" y="2715" as="targetPoint" />
          </mxGeometry>
        </mxCell>
        <mxCell id="FSEfA03kbgUQLvhoxwRy-217" value="" style="html=1;points=[[0,0,0,0,5],[0,1,0,0,-5],[1,0,0,0,5],[1,1,0,0,-5]];perimeter=orthogonalPerimeter;outlineConnect=0;targetShapes=umlLifeline;portConstraint=eastwest;newEdgeStyle={&quot;curved&quot;:0,&quot;rounded&quot;:0};strokeColor=#457B9D;fontColor=#1D3557;fillColor=#A8DADC;" vertex="1" parent="1">
          <mxGeometry x="155" y="2900" width="10" height="20" as="geometry" />
        </mxCell>
        <mxCell id="FSEfA03kbgUQLvhoxwRy-220" value="" style="endArrow=none;dashed=1;html=1;dashPattern=1 3;strokeWidth=2;rounded=0;strokeColor=#457B9D;fontColor=#1D3557;fillColor=#A8DADC;entryX=0.5;entryY=0.5;entryDx=0;entryDy=0;entryPerimeter=0;" edge="1" parent="1" source="FSEfA03kbgUQLvhoxwRy-221" target="FSEfA03kbgUQLvhoxwRy-219">
          <mxGeometry width="50" height="50" relative="1" as="geometry">
            <mxPoint x="160" y="7561" as="sourcePoint" />
            <mxPoint x="160" y="2910" as="targetPoint" />
          </mxGeometry>
        </mxCell>
        <mxCell id="FSEfA03kbgUQLvhoxwRy-219" value="" style="html=1;points=[[0,0,0,0,5],[0,1,0,0,-5],[1,0,0,0,5],[1,1,0,0,-5]];perimeter=orthogonalPerimeter;outlineConnect=0;targetShapes=umlLifeline;portConstraint=eastwest;newEdgeStyle={&quot;curved&quot;:0,&quot;rounded&quot;:0};strokeColor=#457B9D;fontColor=#1D3557;fillColor=#A8DADC;" vertex="1" parent="1">
          <mxGeometry x="155" y="3080" width="10" height="40" as="geometry" />
        </mxCell>
        <mxCell id="FSEfA03kbgUQLvhoxwRy-222" value="" style="endArrow=none;dashed=1;html=1;dashPattern=1 3;strokeWidth=2;rounded=0;strokeColor=#457B9D;fontColor=#1D3557;fillColor=#A8DADC;entryX=0.5;entryY=0.5;entryDx=0;entryDy=0;entryPerimeter=0;" edge="1" parent="1" source="FSEfA03kbgUQLvhoxwRy-223" target="FSEfA03kbgUQLvhoxwRy-221">
          <mxGeometry width="50" height="50" relative="1" as="geometry">
            <mxPoint x="160" y="7561" as="sourcePoint" />
            <mxPoint x="160" y="3100" as="targetPoint" />
          </mxGeometry>
        </mxCell>
        <mxCell id="FSEfA03kbgUQLvhoxwRy-221" value="" style="html=1;points=[[0,0,0,0,5],[0,1,0,0,-5],[1,0,0,0,5],[1,1,0,0,-5]];perimeter=orthogonalPerimeter;outlineConnect=0;targetShapes=umlLifeline;portConstraint=eastwest;newEdgeStyle={&quot;curved&quot;:0,&quot;rounded&quot;:0};strokeColor=#457B9D;fontColor=#1D3557;fillColor=#A8DADC;" vertex="1" parent="1">
          <mxGeometry x="155" y="3280" width="10" height="40" as="geometry" />
        </mxCell>
        <mxCell id="FSEfA03kbgUQLvhoxwRy-224" value="" style="endArrow=none;dashed=1;html=1;dashPattern=1 3;strokeWidth=2;rounded=0;strokeColor=#457B9D;fontColor=#1D3557;fillColor=#A8DADC;entryX=0.5;entryY=0.5;entryDx=0;entryDy=0;entryPerimeter=0;" edge="1" parent="1" source="FSEfA03kbgUQLvhoxwRy-225" target="FSEfA03kbgUQLvhoxwRy-223">
          <mxGeometry width="50" height="50" relative="1" as="geometry">
            <mxPoint x="160" y="7561" as="sourcePoint" />
            <mxPoint x="160" y="3300" as="targetPoint" />
          </mxGeometry>
        </mxCell>
        <mxCell id="FSEfA03kbgUQLvhoxwRy-223" value="" style="html=1;points=[[0,0,0,0,5],[0,1,0,0,-5],[1,0,0,0,5],[1,1,0,0,-5]];perimeter=orthogonalPerimeter;outlineConnect=0;targetShapes=umlLifeline;portConstraint=eastwest;newEdgeStyle={&quot;curved&quot;:0,&quot;rounded&quot;:0};strokeColor=#457B9D;fontColor=#1D3557;fillColor=#A8DADC;" vertex="1" parent="1">
          <mxGeometry x="155" y="3520" width="10" height="40" as="geometry" />
        </mxCell>
        <mxCell id="FSEfA03kbgUQLvhoxwRy-226" value="" style="endArrow=none;dashed=1;html=1;dashPattern=1 3;strokeWidth=2;rounded=0;strokeColor=#457B9D;fontColor=#1D3557;fillColor=#A8DADC;entryX=0.5;entryY=0.5;entryDx=0;entryDy=0;entryPerimeter=0;" edge="1" parent="1" source="FSEfA03kbgUQLvhoxwRy-316" target="FSEfA03kbgUQLvhoxwRy-225">
          <mxGeometry width="50" height="50" relative="1" as="geometry">
            <mxPoint x="160" y="7561" as="sourcePoint" />
            <mxPoint x="160" y="3540" as="targetPoint" />
          </mxGeometry>
        </mxCell>
        <mxCell id="FSEfA03kbgUQLvhoxwRy-225" value="" style="html=1;points=[[0,0,0,0,5],[0,1,0,0,-5],[1,0,0,0,5],[1,1,0,0,-5]];perimeter=orthogonalPerimeter;outlineConnect=0;targetShapes=umlLifeline;portConstraint=eastwest;newEdgeStyle={&quot;curved&quot;:0,&quot;rounded&quot;:0};strokeColor=#457B9D;fontColor=#1D3557;fillColor=#A8DADC;" vertex="1" parent="1">
          <mxGeometry x="155" y="3760" width="10" height="40" as="geometry" />
        </mxCell>
        <mxCell id="FSEfA03kbgUQLvhoxwRy-228" value="" style="endArrow=none;dashed=1;html=1;dashPattern=1 3;strokeWidth=2;rounded=0;strokeColor=#457B9D;fontColor=#1D3557;fillColor=#A8DADC;entryX=0.486;entryY=1.05;entryDx=0;entryDy=0;entryPerimeter=0;" edge="1" parent="1" source="FSEfA03kbgUQLvhoxwRy-234" target="FSEfA03kbgUQLvhoxwRy-227">
          <mxGeometry width="50" height="50" relative="1" as="geometry">
            <mxPoint x="439" y="7561" as="sourcePoint" />
            <mxPoint x="440" y="1822" as="targetPoint" />
          </mxGeometry>
        </mxCell>
        <mxCell id="FSEfA03kbgUQLvhoxwRy-227" value="" style="html=1;points=[[0,0,0,0,5],[0,1,0,0,-5],[1,0,0,0,5],[1,1,0,0,-5]];perimeter=orthogonalPerimeter;outlineConnect=0;targetShapes=umlLifeline;portConstraint=eastwest;newEdgeStyle={&quot;curved&quot;:0,&quot;rounded&quot;:0};strokeColor=#457B9D;fontColor=#1D3557;fillColor=#A8DADC;" vertex="1" parent="1">
          <mxGeometry x="435" y="3960" width="10" height="40" as="geometry" />
        </mxCell>
        <mxCell id="FSEfA03kbgUQLvhoxwRy-230" value="" style="endArrow=none;dashed=1;html=1;dashPattern=1 3;strokeWidth=2;rounded=0;strokeColor=#457B9D;fontColor=#1D3557;fillColor=#A8DADC;" edge="1" parent="1" source="FSEfA03kbgUQLvhoxwRy-232" target="FSEfA03kbgUQLvhoxwRy-229">
          <mxGeometry width="50" height="50" relative="1" as="geometry">
            <mxPoint x="720" y="7560" as="sourcePoint" />
            <mxPoint x="720" y="1360" as="targetPoint" />
          </mxGeometry>
        </mxCell>
        <mxCell id="FSEfA03kbgUQLvhoxwRy-229" value="" style="html=1;points=[[0,0,0,0,5],[0,1,0,0,-5],[1,0,0,0,5],[1,1,0,0,-5]];perimeter=orthogonalPerimeter;outlineConnect=0;targetShapes=umlLifeline;portConstraint=eastwest;newEdgeStyle={&quot;curved&quot;:0,&quot;rounded&quot;:0};strokeColor=#457B9D;fontColor=#1D3557;fillColor=#A8DADC;" vertex="1" parent="1">
          <mxGeometry x="715" y="4000" width="10" height="40" as="geometry" />
        </mxCell>
        <mxCell id="FSEfA03kbgUQLvhoxwRy-231" value="" style="html=1;points=[[0,0,0,0,5],[0,1,0,0,-5],[1,0,0,0,5],[1,1,0,0,-5]];perimeter=orthogonalPerimeter;outlineConnect=0;targetShapes=umlLifeline;portConstraint=eastwest;newEdgeStyle={&quot;curved&quot;:0,&quot;rounded&quot;:0};strokeColor=#457B9D;fontColor=#1D3557;fillColor=#A8DADC;" vertex="1" parent="1">
          <mxGeometry x="1555" y="4040" width="10" height="40" as="geometry" />
        </mxCell>
        <mxCell id="FSEfA03kbgUQLvhoxwRy-233" value="" style="endArrow=none;dashed=1;html=1;dashPattern=1 3;strokeWidth=2;rounded=0;strokeColor=#457B9D;fontColor=#1D3557;fillColor=#A8DADC;" edge="1" parent="1" source="FSEfA03kbgUQLvhoxwRy-243" target="FSEfA03kbgUQLvhoxwRy-232">
          <mxGeometry width="50" height="50" relative="1" as="geometry">
            <mxPoint x="720" y="7560" as="sourcePoint" />
            <mxPoint x="720" y="4040" as="targetPoint" />
          </mxGeometry>
        </mxCell>
        <mxCell id="FSEfA03kbgUQLvhoxwRy-232" value="" style="html=1;points=[[0,0,0,0,5],[0,1,0,0,-5],[1,0,0,0,5],[1,1,0,0,-5]];perimeter=orthogonalPerimeter;outlineConnect=0;targetShapes=umlLifeline;portConstraint=eastwest;newEdgeStyle={&quot;curved&quot;:0,&quot;rounded&quot;:0};strokeColor=#457B9D;fontColor=#1D3557;fillColor=#A8DADC;" vertex="1" parent="1">
          <mxGeometry x="715" y="4080" width="10" height="40" as="geometry" />
        </mxCell>
        <mxCell id="FSEfA03kbgUQLvhoxwRy-235" value="" style="endArrow=none;dashed=1;html=1;dashPattern=1 3;strokeWidth=2;rounded=0;strokeColor=#457B9D;fontColor=#1D3557;fillColor=#A8DADC;entryX=0.486;entryY=1.05;entryDx=0;entryDy=0;entryPerimeter=0;" edge="1" parent="1" source="FSEfA03kbgUQLvhoxwRy-249" target="FSEfA03kbgUQLvhoxwRy-234">
          <mxGeometry width="50" height="50" relative="1" as="geometry">
            <mxPoint x="439" y="7561" as="sourcePoint" />
            <mxPoint x="440" y="4002" as="targetPoint" />
          </mxGeometry>
        </mxCell>
        <mxCell id="FSEfA03kbgUQLvhoxwRy-234" value="" style="html=1;points=[[0,0,0,0,5],[0,1,0,0,-5],[1,0,0,0,5],[1,1,0,0,-5]];perimeter=orthogonalPerimeter;outlineConnect=0;targetShapes=umlLifeline;portConstraint=eastwest;newEdgeStyle={&quot;curved&quot;:0,&quot;rounded&quot;:0};strokeColor=#457B9D;fontColor=#1D3557;fillColor=#A8DADC;" vertex="1" parent="1">
          <mxGeometry x="435" y="4120" width="10" height="40" as="geometry" />
        </mxCell>
        <mxCell id="FSEfA03kbgUQLvhoxwRy-237" value="" style="endArrow=none;dashed=1;html=1;dashPattern=1 3;strokeWidth=2;rounded=0;strokeColor=#457B9D;fontColor=#1D3557;fillColor=#A8DADC;entryX=0.5;entryY=0.5;entryDx=0;entryDy=0;entryPerimeter=0;" edge="1" parent="1" source="FSEfA03kbgUQLvhoxwRy-318" target="FSEfA03kbgUQLvhoxwRy-236">
          <mxGeometry width="50" height="50" relative="1" as="geometry">
            <mxPoint x="160" y="7561" as="sourcePoint" />
            <mxPoint x="160" y="3780" as="targetPoint" />
          </mxGeometry>
        </mxCell>
        <mxCell id="FSEfA03kbgUQLvhoxwRy-236" value="" style="html=1;points=[[0,0,0,0,5],[0,1,0,0,-5],[1,0,0,0,5],[1,1,0,0,-5]];perimeter=orthogonalPerimeter;outlineConnect=0;targetShapes=umlLifeline;portConstraint=eastwest;newEdgeStyle={&quot;curved&quot;:0,&quot;rounded&quot;:0};strokeColor=#457B9D;fontColor=#1D3557;fillColor=#A8DADC;" vertex="1" parent="1">
          <mxGeometry x="155" y="4160" width="10" height="80" as="geometry" />
        </mxCell>
        <mxCell id="FSEfA03kbgUQLvhoxwRy-238" value="" style="html=1;points=[[0,0,0,0,5],[0,1,0,0,-5],[1,0,0,0,5],[1,1,0,0,-5]];perimeter=orthogonalPerimeter;outlineConnect=0;targetShapes=umlLifeline;portConstraint=eastwest;newEdgeStyle={&quot;curved&quot;:0,&quot;rounded&quot;:0};strokeColor=#457B9D;fontColor=#1D3557;fillColor=#A8DADC;" vertex="1" parent="1">
          <mxGeometry x="435" y="4440" width="10" height="70" as="geometry" />
        </mxCell>
        <mxCell id="FSEfA03kbgUQLvhoxwRy-240" value="" style="endArrow=none;dashed=1;html=1;dashPattern=1 3;strokeWidth=2;rounded=0;strokeColor=#457B9D;fontColor=#1D3557;fillColor=#A8DADC;entryX=0.5;entryY=0.5;entryDx=0;entryDy=0;entryPerimeter=0;" edge="1" parent="1" source="FSEfA03kbgUQLvhoxwRy-241" target="FSEfA03kbgUQLvhoxwRy-239">
          <mxGeometry width="50" height="50" relative="1" as="geometry">
            <mxPoint x="160" y="7561" as="sourcePoint" />
            <mxPoint x="160" y="4200" as="targetPoint" />
          </mxGeometry>
        </mxCell>
        <mxCell id="FSEfA03kbgUQLvhoxwRy-239" value="" style="html=1;points=[[0,0,0,0,5],[0,1,0,0,-5],[1,0,0,0,5],[1,1,0,0,-5]];perimeter=orthogonalPerimeter;outlineConnect=0;targetShapes=umlLifeline;portConstraint=eastwest;newEdgeStyle={&quot;curved&quot;:0,&quot;rounded&quot;:0};strokeColor=#457B9D;fontColor=#1D3557;fillColor=#A8DADC;" vertex="1" parent="1">
          <mxGeometry x="155" y="4510" width="10" height="40" as="geometry" />
        </mxCell>
        <mxCell id="FSEfA03kbgUQLvhoxwRy-242" value="" style="endArrow=none;dashed=1;html=1;dashPattern=1 3;strokeWidth=2;rounded=0;strokeColor=#457B9D;fontColor=#1D3557;fillColor=#A8DADC;entryX=0.5;entryY=0.5;entryDx=0;entryDy=0;entryPerimeter=0;" edge="1" parent="1" source="FSEfA03kbgUQLvhoxwRy-245" target="FSEfA03kbgUQLvhoxwRy-241">
          <mxGeometry width="50" height="50" relative="1" as="geometry">
            <mxPoint x="160" y="7561" as="sourcePoint" />
            <mxPoint x="160" y="4530" as="targetPoint" />
          </mxGeometry>
        </mxCell>
        <mxCell id="FSEfA03kbgUQLvhoxwRy-241" value="" style="html=1;points=[[0,0,0,0,5],[0,1,0,0,-5],[1,0,0,0,5],[1,1,0,0,-5]];perimeter=orthogonalPerimeter;outlineConnect=0;targetShapes=umlLifeline;portConstraint=eastwest;newEdgeStyle={&quot;curved&quot;:0,&quot;rounded&quot;:0};strokeColor=#457B9D;fontColor=#1D3557;fillColor=#A8DADC;" vertex="1" parent="1">
          <mxGeometry x="155" y="4560" width="10" height="40" as="geometry" />
        </mxCell>
        <mxCell id="FSEfA03kbgUQLvhoxwRy-244" value="" style="endArrow=none;dashed=1;html=1;dashPattern=1 3;strokeWidth=2;rounded=0;strokeColor=#457B9D;fontColor=#1D3557;fillColor=#A8DADC;" edge="1" parent="1" source="FSEfA03kbgUQLvhoxwRy-251" target="FSEfA03kbgUQLvhoxwRy-243">
          <mxGeometry width="50" height="50" relative="1" as="geometry">
            <mxPoint x="720" y="7560" as="sourcePoint" />
            <mxPoint x="720" y="4120" as="targetPoint" />
          </mxGeometry>
        </mxCell>
        <mxCell id="FSEfA03kbgUQLvhoxwRy-243" value="" style="html=1;points=[[0,0,0,0,5],[0,1,0,0,-5],[1,0,0,0,5],[1,1,0,0,-5]];perimeter=orthogonalPerimeter;outlineConnect=0;targetShapes=umlLifeline;portConstraint=eastwest;newEdgeStyle={&quot;curved&quot;:0,&quot;rounded&quot;:0};strokeColor=#457B9D;fontColor=#1D3557;fillColor=#A8DADC;" vertex="1" parent="1">
          <mxGeometry x="715" y="4660" width="10" height="90" as="geometry" />
        </mxCell>
        <mxCell id="FSEfA03kbgUQLvhoxwRy-115" value="Replace &#39;Description&#39; for selected Order&lt;br&gt;on new one" style="html=1;verticalAlign=bottom;endArrow=block;curved=0;rounded=0;strokeColor=#457B9D;fontColor=#1D3557;fillColor=#A8DADC;" edge="1" parent="1">
          <mxGeometry x="0.0071" width="80" relative="1" as="geometry">
            <mxPoint x="720" y="4659" as="sourcePoint" />
            <mxPoint x="720" y="4749" as="targetPoint" />
            <Array as="points">
              <mxPoint x="800" y="4659" />
              <mxPoint x="800" y="4749" />
            </Array>
            <mxPoint as="offset" />
          </mxGeometry>
        </mxCell>
        <mxCell id="FSEfA03kbgUQLvhoxwRy-246" value="" style="endArrow=none;dashed=1;html=1;dashPattern=1 3;strokeWidth=2;rounded=0;strokeColor=#457B9D;fontColor=#1D3557;fillColor=#A8DADC;entryX=0.5;entryY=0.5;entryDx=0;entryDy=0;entryPerimeter=0;" edge="1" parent="1" source="FSEfA03kbgUQLvhoxwRy-247" target="FSEfA03kbgUQLvhoxwRy-245">
          <mxGeometry width="50" height="50" relative="1" as="geometry">
            <mxPoint x="160" y="7561" as="sourcePoint" />
            <mxPoint x="160" y="4580" as="targetPoint" />
          </mxGeometry>
        </mxCell>
        <mxCell id="FSEfA03kbgUQLvhoxwRy-245" value="" style="html=1;points=[[0,0,0,0,5],[0,1,0,0,-5],[1,0,0,0,5],[1,1,0,0,-5]];perimeter=orthogonalPerimeter;outlineConnect=0;targetShapes=umlLifeline;portConstraint=eastwest;newEdgeStyle={&quot;curved&quot;:0,&quot;rounded&quot;:0};strokeColor=#457B9D;fontColor=#1D3557;fillColor=#A8DADC;" vertex="1" parent="1">
          <mxGeometry x="155" y="4750" width="10" height="30" as="geometry" />
        </mxCell>
        <mxCell id="FSEfA03kbgUQLvhoxwRy-248" value="" style="endArrow=none;dashed=1;html=1;dashPattern=1 3;strokeWidth=2;rounded=0;strokeColor=#457B9D;fontColor=#1D3557;fillColor=#A8DADC;entryX=0.5;entryY=0.5;entryDx=0;entryDy=0;entryPerimeter=0;" edge="1" parent="1" source="FSEfA03kbgUQLvhoxwRy-258" target="FSEfA03kbgUQLvhoxwRy-247">
          <mxGeometry width="50" height="50" relative="1" as="geometry">
            <mxPoint x="160" y="7561" as="sourcePoint" />
            <mxPoint x="160" y="4767" as="targetPoint" />
          </mxGeometry>
        </mxCell>
        <mxCell id="FSEfA03kbgUQLvhoxwRy-247" value="" style="html=1;points=[[0,0,0,0,5],[0,1,0,0,-5],[1,0,0,0,5],[1,1,0,0,-5]];perimeter=orthogonalPerimeter;outlineConnect=0;targetShapes=umlLifeline;portConstraint=eastwest;newEdgeStyle={&quot;curved&quot;:0,&quot;rounded&quot;:0};strokeColor=#457B9D;fontColor=#1D3557;fillColor=#A8DADC;" vertex="1" parent="1">
          <mxGeometry x="155" y="4880" width="10" height="30" as="geometry" />
        </mxCell>
        <mxCell id="FSEfA03kbgUQLvhoxwRy-250" value="" style="endArrow=none;dashed=1;html=1;dashPattern=1 3;strokeWidth=2;rounded=0;strokeColor=#457B9D;fontColor=#1D3557;fillColor=#A8DADC;entryX=0.486;entryY=1.05;entryDx=0;entryDy=0;entryPerimeter=0;" edge="1" parent="1" source="FSEfA03kbgUQLvhoxwRy-256" target="FSEfA03kbgUQLvhoxwRy-249">
          <mxGeometry width="50" height="50" relative="1" as="geometry">
            <mxPoint x="439" y="7561" as="sourcePoint" />
            <mxPoint x="440" y="4162" as="targetPoint" />
          </mxGeometry>
        </mxCell>
        <mxCell id="FSEfA03kbgUQLvhoxwRy-249" value="" style="html=1;points=[[0,0,0,0,5],[0,1,0,0,-5],[1,0,0,0,5],[1,1,0,0,-5]];perimeter=orthogonalPerimeter;outlineConnect=0;targetShapes=umlLifeline;portConstraint=eastwest;newEdgeStyle={&quot;curved&quot;:0,&quot;rounded&quot;:0};strokeColor=#457B9D;fontColor=#1D3557;fillColor=#A8DADC;" vertex="1" parent="1">
          <mxGeometry x="435" y="5060" width="10" height="40" as="geometry" />
        </mxCell>
        <mxCell id="FSEfA03kbgUQLvhoxwRy-252" value="" style="endArrow=none;dashed=1;html=1;dashPattern=1 3;strokeWidth=2;rounded=0;strokeColor=#457B9D;fontColor=#1D3557;fillColor=#A8DADC;" edge="1" parent="1" source="FSEfA03kbgUQLvhoxwRy-254" target="FSEfA03kbgUQLvhoxwRy-251">
          <mxGeometry width="50" height="50" relative="1" as="geometry">
            <mxPoint x="720" y="7560" as="sourcePoint" />
            <mxPoint x="720" y="4750" as="targetPoint" />
          </mxGeometry>
        </mxCell>
        <mxCell id="FSEfA03kbgUQLvhoxwRy-251" value="" style="html=1;points=[[0,0,0,0,5],[0,1,0,0,-5],[1,0,0,0,5],[1,1,0,0,-5]];perimeter=orthogonalPerimeter;outlineConnect=0;targetShapes=umlLifeline;portConstraint=eastwest;newEdgeStyle={&quot;curved&quot;:0,&quot;rounded&quot;:0};strokeColor=#457B9D;fontColor=#1D3557;fillColor=#A8DADC;" vertex="1" parent="1">
          <mxGeometry x="715" y="5100" width="10" height="40" as="geometry" />
        </mxCell>
        <mxCell id="FSEfA03kbgUQLvhoxwRy-253" value="" style="html=1;points=[[0,0,0,0,5],[0,1,0,0,-5],[1,0,0,0,5],[1,1,0,0,-5]];perimeter=orthogonalPerimeter;outlineConnect=0;targetShapes=umlLifeline;portConstraint=eastwest;newEdgeStyle={&quot;curved&quot;:0,&quot;rounded&quot;:0};strokeColor=#457B9D;fontColor=#1D3557;fillColor=#A8DADC;" vertex="1" parent="1">
          <mxGeometry x="1555" y="5140" width="10" height="40" as="geometry" />
        </mxCell>
        <mxCell id="FSEfA03kbgUQLvhoxwRy-255" value="" style="endArrow=none;dashed=1;html=1;dashPattern=1 3;strokeWidth=2;rounded=0;strokeColor=#457B9D;fontColor=#1D3557;fillColor=#A8DADC;" edge="1" parent="1" source="FSEfA03kbgUQLvhoxwRy-266" target="FSEfA03kbgUQLvhoxwRy-254">
          <mxGeometry width="50" height="50" relative="1" as="geometry">
            <mxPoint x="720" y="7560" as="sourcePoint" />
            <mxPoint x="720" y="5140" as="targetPoint" />
          </mxGeometry>
        </mxCell>
        <mxCell id="FSEfA03kbgUQLvhoxwRy-254" value="" style="html=1;points=[[0,0,0,0,5],[0,1,0,0,-5],[1,0,0,0,5],[1,1,0,0,-5]];perimeter=orthogonalPerimeter;outlineConnect=0;targetShapes=umlLifeline;portConstraint=eastwest;newEdgeStyle={&quot;curved&quot;:0,&quot;rounded&quot;:0};strokeColor=#457B9D;fontColor=#1D3557;fillColor=#A8DADC;" vertex="1" parent="1">
          <mxGeometry x="715" y="5180" width="10" height="40" as="geometry" />
        </mxCell>
        <mxCell id="FSEfA03kbgUQLvhoxwRy-257" value="" style="endArrow=none;dashed=1;html=1;dashPattern=1 3;strokeWidth=2;rounded=0;strokeColor=#457B9D;fontColor=#1D3557;fillColor=#A8DADC;entryX=0.486;entryY=1.05;entryDx=0;entryDy=0;entryPerimeter=0;" edge="1" parent="1" source="FSEfA03kbgUQLvhoxwRy-260" target="FSEfA03kbgUQLvhoxwRy-256">
          <mxGeometry width="50" height="50" relative="1" as="geometry">
            <mxPoint x="439" y="7561" as="sourcePoint" />
            <mxPoint x="440" y="5102" as="targetPoint" />
          </mxGeometry>
        </mxCell>
        <mxCell id="FSEfA03kbgUQLvhoxwRy-256" value="" style="html=1;points=[[0,0,0,0,5],[0,1,0,0,-5],[1,0,0,0,5],[1,1,0,0,-5]];perimeter=orthogonalPerimeter;outlineConnect=0;targetShapes=umlLifeline;portConstraint=eastwest;newEdgeStyle={&quot;curved&quot;:0,&quot;rounded&quot;:0};strokeColor=#457B9D;fontColor=#1D3557;fillColor=#A8DADC;" vertex="1" parent="1">
          <mxGeometry x="435" y="5220" width="10" height="40" as="geometry" />
        </mxCell>
        <mxCell id="FSEfA03kbgUQLvhoxwRy-259" value="" style="endArrow=none;dashed=1;html=1;dashPattern=1 3;strokeWidth=2;rounded=0;strokeColor=#457B9D;fontColor=#1D3557;fillColor=#A8DADC;entryX=0.5;entryY=0.5;entryDx=0;entryDy=0;entryPerimeter=0;" edge="1" parent="1" source="FSEfA03kbgUQLvhoxwRy-262" target="FSEfA03kbgUQLvhoxwRy-258">
          <mxGeometry width="50" height="50" relative="1" as="geometry">
            <mxPoint x="160" y="7561" as="sourcePoint" />
            <mxPoint x="160" y="4895" as="targetPoint" />
          </mxGeometry>
        </mxCell>
        <mxCell id="FSEfA03kbgUQLvhoxwRy-258" value="" style="html=1;points=[[0,0,0,0,5],[0,1,0,0,-5],[1,0,0,0,5],[1,1,0,0,-5]];perimeter=orthogonalPerimeter;outlineConnect=0;targetShapes=umlLifeline;portConstraint=eastwest;newEdgeStyle={&quot;curved&quot;:0,&quot;rounded&quot;:0};strokeColor=#457B9D;fontColor=#1D3557;fillColor=#A8DADC;" vertex="1" parent="1">
          <mxGeometry x="155" y="5260" width="10" height="40" as="geometry" />
        </mxCell>
        <mxCell id="FSEfA03kbgUQLvhoxwRy-261" value="" style="endArrow=none;dashed=1;html=1;dashPattern=1 3;strokeWidth=2;rounded=0;strokeColor=#457B9D;fontColor=#1D3557;fillColor=#A8DADC;entryX=0.486;entryY=1.05;entryDx=0;entryDy=0;entryPerimeter=0;" edge="1" parent="1" source="FSEfA03kbgUQLvhoxwRy-264" target="FSEfA03kbgUQLvhoxwRy-260">
          <mxGeometry width="50" height="50" relative="1" as="geometry">
            <mxPoint x="439" y="7561" as="sourcePoint" />
            <mxPoint x="440" y="5262" as="targetPoint" />
          </mxGeometry>
        </mxCell>
        <mxCell id="FSEfA03kbgUQLvhoxwRy-260" value="" style="html=1;points=[[0,0,0,0,5],[0,1,0,0,-5],[1,0,0,0,5],[1,1,0,0,-5]];perimeter=orthogonalPerimeter;outlineConnect=0;targetShapes=umlLifeline;portConstraint=eastwest;newEdgeStyle={&quot;curved&quot;:0,&quot;rounded&quot;:0};strokeColor=#457B9D;fontColor=#1D3557;fillColor=#A8DADC;" vertex="1" parent="1">
          <mxGeometry x="435" y="5300" width="10" height="40" as="geometry" />
        </mxCell>
        <mxCell id="FSEfA03kbgUQLvhoxwRy-263" value="" style="endArrow=none;dashed=1;html=1;dashPattern=1 3;strokeWidth=2;rounded=0;strokeColor=#457B9D;fontColor=#1D3557;fillColor=#A8DADC;entryX=0.5;entryY=0.5;entryDx=0;entryDy=0;entryPerimeter=0;" edge="1" parent="1" source="FSEfA03kbgUQLvhoxwRy-268" target="FSEfA03kbgUQLvhoxwRy-262">
          <mxGeometry width="50" height="50" relative="1" as="geometry">
            <mxPoint x="160" y="7561" as="sourcePoint" />
            <mxPoint x="160" y="5280" as="targetPoint" />
          </mxGeometry>
        </mxCell>
        <mxCell id="FSEfA03kbgUQLvhoxwRy-262" value="" style="html=1;points=[[0,0,0,0,5],[0,1,0,0,-5],[1,0,0,0,5],[1,1,0,0,-5]];perimeter=orthogonalPerimeter;outlineConnect=0;targetShapes=umlLifeline;portConstraint=eastwest;newEdgeStyle={&quot;curved&quot;:0,&quot;rounded&quot;:0};strokeColor=#457B9D;fontColor=#1D3557;fillColor=#A8DADC;" vertex="1" parent="1">
          <mxGeometry x="155" y="5340" width="10" height="40" as="geometry" />
        </mxCell>
        <mxCell id="FSEfA03kbgUQLvhoxwRy-265" value="" style="endArrow=none;dashed=1;html=1;dashPattern=1 3;strokeWidth=2;rounded=0;strokeColor=#457B9D;fontColor=#1D3557;fillColor=#A8DADC;entryX=0.486;entryY=1.05;entryDx=0;entryDy=0;entryPerimeter=0;" edge="1" parent="1" source="FSEfA03kbgUQLvhoxwRy-272" target="FSEfA03kbgUQLvhoxwRy-264">
          <mxGeometry width="50" height="50" relative="1" as="geometry">
            <mxPoint x="439" y="7561" as="sourcePoint" />
            <mxPoint x="440" y="5342" as="targetPoint" />
          </mxGeometry>
        </mxCell>
        <mxCell id="FSEfA03kbgUQLvhoxwRy-264" value="" style="html=1;points=[[0,0,0,0,5],[0,1,0,0,-5],[1,0,0,0,5],[1,1,0,0,-5]];perimeter=orthogonalPerimeter;outlineConnect=0;targetShapes=umlLifeline;portConstraint=eastwest;newEdgeStyle={&quot;curved&quot;:0,&quot;rounded&quot;:0};strokeColor=#457B9D;fontColor=#1D3557;fillColor=#A8DADC;" vertex="1" parent="1">
          <mxGeometry x="435" y="5380" width="10" height="40" as="geometry" />
        </mxCell>
        <mxCell id="FSEfA03kbgUQLvhoxwRy-267" value="" style="endArrow=none;dashed=1;html=1;dashPattern=1 3;strokeWidth=2;rounded=0;strokeColor=#457B9D;fontColor=#1D3557;fillColor=#A8DADC;" edge="1" parent="1" source="FSEfA03kbgUQLvhoxwRy-279" target="FSEfA03kbgUQLvhoxwRy-266">
          <mxGeometry width="50" height="50" relative="1" as="geometry">
            <mxPoint x="720" y="7560" as="sourcePoint" />
            <mxPoint x="720" y="5220" as="targetPoint" />
          </mxGeometry>
        </mxCell>
        <mxCell id="FSEfA03kbgUQLvhoxwRy-266" value="" style="html=1;points=[[0,0,0,0,5],[0,1,0,0,-5],[1,0,0,0,5],[1,1,0,0,-5]];perimeter=orthogonalPerimeter;outlineConnect=0;targetShapes=umlLifeline;portConstraint=eastwest;newEdgeStyle={&quot;curved&quot;:0,&quot;rounded&quot;:0};strokeColor=#457B9D;fontColor=#1D3557;fillColor=#A8DADC;" vertex="1" parent="1">
          <mxGeometry x="715" y="5460" width="10" height="80" as="geometry" />
        </mxCell>
        <mxCell id="FSEfA03kbgUQLvhoxwRy-128" value="Save &#39;Document Content&#39;&lt;br&gt;to array/structure/whatever else" style="html=1;verticalAlign=bottom;endArrow=block;curved=0;rounded=0;strokeColor=#457B9D;fontColor=#1D3557;fillColor=#A8DADC;" edge="1" parent="1">
          <mxGeometry x="0.0071" width="80" relative="1" as="geometry">
            <mxPoint x="720" y="5460" as="sourcePoint" />
            <mxPoint x="720" y="5540" as="targetPoint" />
            <Array as="points">
              <mxPoint x="800" y="5460" />
              <mxPoint x="800" y="5540" />
            </Array>
            <mxPoint as="offset" />
          </mxGeometry>
        </mxCell>
        <mxCell id="FSEfA03kbgUQLvhoxwRy-269" value="" style="endArrow=none;dashed=1;html=1;dashPattern=1 3;strokeWidth=2;rounded=0;strokeColor=#457B9D;fontColor=#1D3557;fillColor=#A8DADC;entryX=0.5;entryY=0.5;entryDx=0;entryDy=0;entryPerimeter=0;" edge="1" parent="1" source="FSEfA03kbgUQLvhoxwRy-270" target="FSEfA03kbgUQLvhoxwRy-268">
          <mxGeometry width="50" height="50" relative="1" as="geometry">
            <mxPoint x="160" y="7561" as="sourcePoint" />
            <mxPoint x="160" y="5360" as="targetPoint" />
          </mxGeometry>
        </mxCell>
        <mxCell id="FSEfA03kbgUQLvhoxwRy-268" value="" style="html=1;points=[[0,0,0,0,5],[0,1,0,0,-5],[1,0,0,0,5],[1,1,0,0,-5]];perimeter=orthogonalPerimeter;outlineConnect=0;targetShapes=umlLifeline;portConstraint=eastwest;newEdgeStyle={&quot;curved&quot;:0,&quot;rounded&quot;:0};strokeColor=#457B9D;fontColor=#1D3557;fillColor=#A8DADC;" vertex="1" parent="1">
          <mxGeometry x="155" y="5540" width="10" height="30" as="geometry" />
        </mxCell>
        <mxCell id="FSEfA03kbgUQLvhoxwRy-271" value="" style="endArrow=none;dashed=1;html=1;dashPattern=1 3;strokeWidth=2;rounded=0;strokeColor=#457B9D;fontColor=#1D3557;fillColor=#A8DADC;entryX=0.5;entryY=0.5;entryDx=0;entryDy=0;entryPerimeter=0;" edge="1" parent="1" source="FSEfA03kbgUQLvhoxwRy-313" target="FSEfA03kbgUQLvhoxwRy-270">
          <mxGeometry width="50" height="50" relative="1" as="geometry">
            <mxPoint x="160" y="7561" as="sourcePoint" />
            <mxPoint x="160" y="5555" as="targetPoint" />
          </mxGeometry>
        </mxCell>
        <mxCell id="FSEfA03kbgUQLvhoxwRy-270" value="" style="html=1;points=[[0,0,0,0,5],[0,1,0,0,-5],[1,0,0,0,5],[1,1,0,0,-5]];perimeter=orthogonalPerimeter;outlineConnect=0;targetShapes=umlLifeline;portConstraint=eastwest;newEdgeStyle={&quot;curved&quot;:0,&quot;rounded&quot;:0};strokeColor=#457B9D;fontColor=#1D3557;fillColor=#A8DADC;" vertex="1" parent="1">
          <mxGeometry x="155" y="5670" width="10" height="30" as="geometry" />
        </mxCell>
        <mxCell id="FSEfA03kbgUQLvhoxwRy-276" value="" style="endArrow=none;dashed=1;html=1;dashPattern=1 3;strokeWidth=2;rounded=0;strokeColor=#457B9D;fontColor=#1D3557;fillColor=#A8DADC;entryX=0.486;entryY=1.05;entryDx=0;entryDy=0;entryPerimeter=0;" edge="1" parent="1" source="FSEfA03kbgUQLvhoxwRy-277" target="FSEfA03kbgUQLvhoxwRy-272">
          <mxGeometry width="50" height="50" relative="1" as="geometry">
            <mxPoint x="439" y="7561" as="sourcePoint" />
            <mxPoint x="440" y="5422" as="targetPoint" />
          </mxGeometry>
        </mxCell>
        <mxCell id="FSEfA03kbgUQLvhoxwRy-272" value="" style="html=1;points=[[0,0,0,0,5],[0,1,0,0,-5],[1,0,0,0,5],[1,1,0,0,-5]];perimeter=orthogonalPerimeter;outlineConnect=0;targetShapes=umlLifeline;portConstraint=eastwest;newEdgeStyle={&quot;curved&quot;:0,&quot;rounded&quot;:0};strokeColor=#457B9D;fontColor=#1D3557;fillColor=#A8DADC;" vertex="1" parent="1">
          <mxGeometry x="435" y="5830" width="10" height="30" as="geometry" />
        </mxCell>
        <mxCell id="FSEfA03kbgUQLvhoxwRy-278" value="" style="endArrow=none;dashed=1;html=1;dashPattern=1 3;strokeWidth=2;rounded=0;strokeColor=#457B9D;fontColor=#1D3557;fillColor=#A8DADC;entryX=0.486;entryY=1.05;entryDx=0;entryDy=0;entryPerimeter=0;" edge="1" parent="1" source="FSEfA03kbgUQLvhoxwRy-300" target="FSEfA03kbgUQLvhoxwRy-277">
          <mxGeometry width="50" height="50" relative="1" as="geometry">
            <mxPoint x="439" y="7561" as="sourcePoint" />
            <mxPoint x="440" y="5862" as="targetPoint" />
          </mxGeometry>
        </mxCell>
        <mxCell id="FSEfA03kbgUQLvhoxwRy-277" value="" style="html=1;points=[[0,0,0,0,5],[0,1,0,0,-5],[1,0,0,0,5],[1,1,0,0,-5]];perimeter=orthogonalPerimeter;outlineConnect=0;targetShapes=umlLifeline;portConstraint=eastwest;newEdgeStyle={&quot;curved&quot;:0,&quot;rounded&quot;:0};strokeColor=#457B9D;fontColor=#1D3557;fillColor=#A8DADC;" vertex="1" parent="1">
          <mxGeometry x="435" y="5950" width="10" height="90" as="geometry" />
        </mxCell>
        <mxCell id="FSEfA03kbgUQLvhoxwRy-280" value="" style="endArrow=none;dashed=1;html=1;dashPattern=1 3;strokeWidth=2;rounded=0;strokeColor=#457B9D;fontColor=#1D3557;fillColor=#A8DADC;" edge="1" parent="1" source="FSEfA03kbgUQLvhoxwRy-281" target="FSEfA03kbgUQLvhoxwRy-279">
          <mxGeometry width="50" height="50" relative="1" as="geometry">
            <mxPoint x="720" y="7560" as="sourcePoint" />
            <mxPoint x="720" y="5540" as="targetPoint" />
          </mxGeometry>
        </mxCell>
        <mxCell id="FSEfA03kbgUQLvhoxwRy-279" value="" style="html=1;points=[[0,0,0,0,5],[0,1,0,0,-5],[1,0,0,0,5],[1,1,0,0,-5]];perimeter=orthogonalPerimeter;outlineConnect=0;targetShapes=umlLifeline;portConstraint=eastwest;newEdgeStyle={&quot;curved&quot;:0,&quot;rounded&quot;:0};strokeColor=#457B9D;fontColor=#1D3557;fillColor=#A8DADC;" vertex="1" parent="1">
          <mxGeometry x="715" y="6080" width="10" height="80" as="geometry" />
        </mxCell>
        <mxCell id="FSEfA03kbgUQLvhoxwRy-282" value="" style="endArrow=none;dashed=1;html=1;dashPattern=1 3;strokeWidth=2;rounded=0;strokeColor=#457B9D;fontColor=#1D3557;fillColor=#A8DADC;" edge="1" parent="1" source="FSEfA03kbgUQLvhoxwRy-283" target="FSEfA03kbgUQLvhoxwRy-281">
          <mxGeometry width="50" height="50" relative="1" as="geometry">
            <mxPoint x="720" y="7560" as="sourcePoint" />
            <mxPoint x="720" y="6160" as="targetPoint" />
          </mxGeometry>
        </mxCell>
        <mxCell id="FSEfA03kbgUQLvhoxwRy-281" value="" style="html=1;points=[[0,0,0,0,5],[0,1,0,0,-5],[1,0,0,0,5],[1,1,0,0,-5]];perimeter=orthogonalPerimeter;outlineConnect=0;targetShapes=umlLifeline;portConstraint=eastwest;newEdgeStyle={&quot;curved&quot;:0,&quot;rounded&quot;:0};strokeColor=#457B9D;fontColor=#1D3557;fillColor=#A8DADC;" vertex="1" parent="1">
          <mxGeometry x="715" y="6190" width="10" height="80" as="geometry" />
        </mxCell>
        <mxCell id="FSEfA03kbgUQLvhoxwRy-284" value="" style="endArrow=none;dashed=1;html=1;dashPattern=1 3;strokeWidth=2;rounded=0;strokeColor=#457B9D;fontColor=#1D3557;fillColor=#A8DADC;" edge="1" parent="1" source="FSEfA03kbgUQLvhoxwRy-285" target="FSEfA03kbgUQLvhoxwRy-283">
          <mxGeometry width="50" height="50" relative="1" as="geometry">
            <mxPoint x="720" y="7560" as="sourcePoint" />
            <mxPoint x="720" y="6270" as="targetPoint" />
          </mxGeometry>
        </mxCell>
        <mxCell id="FSEfA03kbgUQLvhoxwRy-283" value="" style="html=1;points=[[0,0,0,0,5],[0,1,0,0,-5],[1,0,0,0,5],[1,1,0,0,-5]];perimeter=orthogonalPerimeter;outlineConnect=0;targetShapes=umlLifeline;portConstraint=eastwest;newEdgeStyle={&quot;curved&quot;:0,&quot;rounded&quot;:0};strokeColor=#457B9D;fontColor=#1D3557;fillColor=#A8DADC;" vertex="1" parent="1">
          <mxGeometry x="715" y="6300" width="10" height="80" as="geometry" />
        </mxCell>
        <mxCell id="FSEfA03kbgUQLvhoxwRy-286" value="" style="endArrow=none;dashed=1;html=1;dashPattern=1 3;strokeWidth=2;rounded=0;strokeColor=#457B9D;fontColor=#1D3557;fillColor=#A8DADC;" edge="1" parent="1" source="FSEfA03kbgUQLvhoxwRy-288" target="FSEfA03kbgUQLvhoxwRy-285">
          <mxGeometry width="50" height="50" relative="1" as="geometry">
            <mxPoint x="720" y="7560" as="sourcePoint" />
            <mxPoint x="720" y="6380" as="targetPoint" />
          </mxGeometry>
        </mxCell>
        <mxCell id="FSEfA03kbgUQLvhoxwRy-285" value="" style="html=1;points=[[0,0,0,0,5],[0,1,0,0,-5],[1,0,0,0,5],[1,1,0,0,-5]];perimeter=orthogonalPerimeter;outlineConnect=0;targetShapes=umlLifeline;portConstraint=eastwest;newEdgeStyle={&quot;curved&quot;:0,&quot;rounded&quot;:0};strokeColor=#457B9D;fontColor=#1D3557;fillColor=#A8DADC;" vertex="1" parent="1">
          <mxGeometry x="715" y="6400" width="10" height="80" as="geometry" />
        </mxCell>
        <mxCell id="FSEfA03kbgUQLvhoxwRy-287" value="" style="endArrow=none;dashed=1;html=1;dashPattern=1 3;strokeWidth=2;rounded=0;strokeColor=#457B9D;fontColor=#1D3557;fillColor=#A8DADC;" edge="1" parent="1" source="FSEfA03kbgUQLvhoxwRy-296" target="FSEfA03kbgUQLvhoxwRy-288">
          <mxGeometry width="50" height="50" relative="1" as="geometry">
            <mxPoint x="720" y="7560" as="sourcePoint" />
            <mxPoint x="720" y="6480" as="targetPoint" />
          </mxGeometry>
        </mxCell>
        <mxCell id="FSEfA03kbgUQLvhoxwRy-288" value="" style="html=1;points=[[0,0,0,0,5],[0,1,0,0,-5],[1,0,0,0,5],[1,1,0,0,-5]];perimeter=orthogonalPerimeter;outlineConnect=0;targetShapes=umlLifeline;portConstraint=eastwest;newEdgeStyle={&quot;curved&quot;:0,&quot;rounded&quot;:0};strokeColor=#457B9D;fontColor=#1D3557;fillColor=#A8DADC;" vertex="1" parent="1">
          <mxGeometry x="715" y="6560" width="10" height="80" as="geometry" />
        </mxCell>
        <mxCell id="FSEfA03kbgUQLvhoxwRy-290" value="" style="endArrow=none;dashed=1;html=1;dashPattern=1 3;strokeWidth=2;rounded=0;strokeColor=#457B9D;fontColor=#1D3557;fillColor=#A8DADC;entryX=0.5;entryY=1;entryDx=0;entryDy=0;" edge="1" parent="1" source="FSEfA03kbgUQLvhoxwRy-299" target="FSEfA03kbgUQLvhoxwRy-289">
          <mxGeometry width="50" height="50" relative="1" as="geometry">
            <mxPoint x="2120" y="7560" as="sourcePoint" />
            <mxPoint x="2120" y="195" as="targetPoint" />
          </mxGeometry>
        </mxCell>
        <mxCell id="FSEfA03kbgUQLvhoxwRy-289" value="" style="html=1;points=[[0,0,0,0,5],[0,1,0,0,-5],[1,0,0,0,5],[1,1,0,0,-5]];perimeter=orthogonalPerimeter;outlineConnect=0;targetShapes=umlLifeline;portConstraint=eastwest;newEdgeStyle={&quot;curved&quot;:0,&quot;rounded&quot;:0};strokeColor=#457B9D;fontColor=#1D3557;fillColor=#A8DADC;" vertex="1" parent="1">
          <mxGeometry x="2115" y="6640" width="10" height="20" as="geometry" />
        </mxCell>
        <mxCell id="FSEfA03kbgUQLvhoxwRy-291" value="" style="html=1;points=[[0,0,0,0,5],[0,1,0,0,-5],[1,0,0,0,5],[1,1,0,0,-5]];perimeter=orthogonalPerimeter;outlineConnect=0;targetShapes=umlLifeline;portConstraint=eastwest;newEdgeStyle={&quot;curved&quot;:0,&quot;rounded&quot;:0};strokeColor=#457B9D;fontColor=#1D3557;fillColor=#A8DADC;" vertex="1" parent="1">
          <mxGeometry x="1555" y="6680" width="10" height="20" as="geometry" />
        </mxCell>
        <mxCell id="FSEfA03kbgUQLvhoxwRy-293" value="" style="endArrow=none;dashed=1;html=1;dashPattern=1 3;strokeWidth=2;rounded=0;strokeColor=#457B9D;fontColor=#1D3557;fillColor=#A8DADC;" edge="1" parent="1" source="FSEfA03kbgUQLvhoxwRy-305" target="FSEfA03kbgUQLvhoxwRy-292">
          <mxGeometry width="50" height="50" relative="1" as="geometry">
            <mxPoint x="1840" y="7560" as="sourcePoint" />
            <mxPoint x="1840" y="195" as="targetPoint" />
          </mxGeometry>
        </mxCell>
        <mxCell id="FSEfA03kbgUQLvhoxwRy-292" value="" style="html=1;points=[[0,0,0,0,5],[0,1,0,0,-5],[1,0,0,0,5],[1,1,0,0,-5]];perimeter=orthogonalPerimeter;outlineConnect=0;targetShapes=umlLifeline;portConstraint=eastwest;newEdgeStyle={&quot;curved&quot;:0,&quot;rounded&quot;:0};strokeColor=#457B9D;fontColor=#1D3557;fillColor=#A8DADC;" vertex="1" parent="1">
          <mxGeometry x="1836" y="6800" width="10" height="40" as="geometry" />
        </mxCell>
        <mxCell id="FSEfA03kbgUQLvhoxwRy-295" value="" style="endArrow=none;dashed=1;html=1;dashPattern=1 3;strokeWidth=2;rounded=0;strokeColor=#457B9D;fontColor=#1D3557;fillColor=#A8DADC;entryX=0.5;entryY=1;entryDx=0;entryDy=0;" edge="1" parent="1" source="FSEfA03kbgUQLvhoxwRy-307" target="FSEfA03kbgUQLvhoxwRy-294">
          <mxGeometry width="50" height="50" relative="1" as="geometry">
            <mxPoint x="1280" y="7560" as="sourcePoint" />
            <mxPoint x="1280" y="800" as="targetPoint" />
          </mxGeometry>
        </mxCell>
        <mxCell id="FSEfA03kbgUQLvhoxwRy-294" value="" style="html=1;points=[[0,0,0,0,5],[0,1,0,0,-5],[1,0,0,0,5],[1,1,0,0,-5]];perimeter=orthogonalPerimeter;outlineConnect=0;targetShapes=umlLifeline;portConstraint=eastwest;newEdgeStyle={&quot;curved&quot;:0,&quot;rounded&quot;:0};strokeColor=#457B9D;fontColor=#1D3557;fillColor=#A8DADC;" vertex="1" parent="1">
          <mxGeometry x="1275" y="6840" width="10" height="20" as="geometry" />
        </mxCell>
        <mxCell id="FSEfA03kbgUQLvhoxwRy-297" value="" style="endArrow=none;dashed=1;html=1;dashPattern=1 3;strokeWidth=2;rounded=0;strokeColor=#457B9D;fontColor=#1D3557;fillColor=#A8DADC;" edge="1" parent="1" source="FSEfA03kbgUQLvhoxwRy-303" target="FSEfA03kbgUQLvhoxwRy-296">
          <mxGeometry width="50" height="50" relative="1" as="geometry">
            <mxPoint x="720" y="7560" as="sourcePoint" />
            <mxPoint x="720" y="6640" as="targetPoint" />
          </mxGeometry>
        </mxCell>
        <mxCell id="FSEfA03kbgUQLvhoxwRy-296" value="" style="html=1;points=[[0,0,0,0,5],[0,1,0,0,-5],[1,0,0,0,5],[1,1,0,0,-5]];perimeter=orthogonalPerimeter;outlineConnect=0;targetShapes=umlLifeline;portConstraint=eastwest;newEdgeStyle={&quot;curved&quot;:0,&quot;rounded&quot;:0};strokeColor=#457B9D;fontColor=#1D3557;fillColor=#A8DADC;" vertex="1" parent="1">
          <mxGeometry x="715" y="6880" width="10" height="40" as="geometry" />
        </mxCell>
        <mxCell id="FSEfA03kbgUQLvhoxwRy-298" value="" style="endArrow=none;dashed=1;html=1;dashPattern=1 3;strokeWidth=2;rounded=0;strokeColor=#457B9D;fontColor=#1D3557;fillColor=#A8DADC;entryX=0.5;entryY=1;entryDx=0;entryDy=0;" edge="1" parent="1" source="FSEfA03kbgUQLvhoxwRy-311" target="FSEfA03kbgUQLvhoxwRy-299">
          <mxGeometry width="50" height="50" relative="1" as="geometry">
            <mxPoint x="2120" y="7560" as="sourcePoint" />
            <mxPoint x="2120" y="6660" as="targetPoint" />
          </mxGeometry>
        </mxCell>
        <mxCell id="FSEfA03kbgUQLvhoxwRy-299" value="" style="html=1;points=[[0,0,0,0,5],[0,1,0,0,-5],[1,0,0,0,5],[1,1,0,0,-5]];perimeter=orthogonalPerimeter;outlineConnect=0;targetShapes=umlLifeline;portConstraint=eastwest;newEdgeStyle={&quot;curved&quot;:0,&quot;rounded&quot;:0};strokeColor=#457B9D;fontColor=#1D3557;fillColor=#A8DADC;" vertex="1" parent="1">
          <mxGeometry x="2115" y="6990" width="10" height="40" as="geometry" />
        </mxCell>
        <mxCell id="FSEfA03kbgUQLvhoxwRy-302" value="" style="endArrow=none;dashed=1;html=1;dashPattern=1 3;strokeWidth=2;rounded=0;strokeColor=#457B9D;fontColor=#1D3557;fillColor=#A8DADC;entryX=0.486;entryY=1.05;entryDx=0;entryDy=0;entryPerimeter=0;" edge="1" parent="1" target="FSEfA03kbgUQLvhoxwRy-300">
          <mxGeometry width="50" height="50" relative="1" as="geometry">
            <mxPoint x="439" y="7561" as="sourcePoint" />
            <mxPoint x="440" y="6045" as="targetPoint" />
          </mxGeometry>
        </mxCell>
        <mxCell id="FSEfA03kbgUQLvhoxwRy-300" value="" style="html=1;points=[[0,0,0,0,5],[0,1,0,0,-5],[1,0,0,0,5],[1,1,0,0,-5]];perimeter=orthogonalPerimeter;outlineConnect=0;targetShapes=umlLifeline;portConstraint=eastwest;newEdgeStyle={&quot;curved&quot;:0,&quot;rounded&quot;:0};strokeColor=#457B9D;fontColor=#1D3557;fillColor=#A8DADC;" vertex="1" parent="1">
          <mxGeometry x="435" y="7160" width="10" height="40" as="geometry" />
        </mxCell>
        <mxCell id="FSEfA03kbgUQLvhoxwRy-304" value="" style="endArrow=none;dashed=1;html=1;dashPattern=1 3;strokeWidth=2;rounded=0;strokeColor=#457B9D;fontColor=#1D3557;fillColor=#A8DADC;" edge="1" parent="1" source="FSEfA03kbgUQLvhoxwRy-309" target="FSEfA03kbgUQLvhoxwRy-303">
          <mxGeometry width="50" height="50" relative="1" as="geometry">
            <mxPoint x="720" y="7560" as="sourcePoint" />
            <mxPoint x="720" y="6920" as="targetPoint" />
          </mxGeometry>
        </mxCell>
        <mxCell id="FSEfA03kbgUQLvhoxwRy-303" value="" style="html=1;points=[[0,0,0,0,5],[0,1,0,0,-5],[1,0,0,0,5],[1,1,0,0,-5]];perimeter=orthogonalPerimeter;outlineConnect=0;targetShapes=umlLifeline;portConstraint=eastwest;newEdgeStyle={&quot;curved&quot;:0,&quot;rounded&quot;:0};strokeColor=#457B9D;fontColor=#1D3557;fillColor=#A8DADC;" vertex="1" parent="1">
          <mxGeometry x="715" y="7200" width="10" height="80" as="geometry" />
        </mxCell>
        <mxCell id="FSEfA03kbgUQLvhoxwRy-306" value="" style="endArrow=none;dashed=1;html=1;dashPattern=1 3;strokeWidth=2;rounded=0;strokeColor=#457B9D;fontColor=#1D3557;fillColor=#A8DADC;" edge="1" parent="1" target="FSEfA03kbgUQLvhoxwRy-305">
          <mxGeometry width="50" height="50" relative="1" as="geometry">
            <mxPoint x="1840" y="7560" as="sourcePoint" />
            <mxPoint x="1840" y="6840" as="targetPoint" />
          </mxGeometry>
        </mxCell>
        <mxCell id="FSEfA03kbgUQLvhoxwRy-305" value="" style="html=1;points=[[0,0,0,0,5],[0,1,0,0,-5],[1,0,0,0,5],[1,1,0,0,-5]];perimeter=orthogonalPerimeter;outlineConnect=0;targetShapes=umlLifeline;portConstraint=eastwest;newEdgeStyle={&quot;curved&quot;:0,&quot;rounded&quot;:0};strokeColor=#457B9D;fontColor=#1D3557;fillColor=#A8DADC;" vertex="1" parent="1">
          <mxGeometry x="1835" y="7280" width="10" height="40" as="geometry" />
        </mxCell>
        <mxCell id="FSEfA03kbgUQLvhoxwRy-308" value="" style="endArrow=none;dashed=1;html=1;dashPattern=1 3;strokeWidth=2;rounded=0;strokeColor=#457B9D;fontColor=#1D3557;fillColor=#A8DADC;entryX=0.5;entryY=1;entryDx=0;entryDy=0;" edge="1" parent="1" target="FSEfA03kbgUQLvhoxwRy-307">
          <mxGeometry width="50" height="50" relative="1" as="geometry">
            <mxPoint x="1280" y="7560" as="sourcePoint" />
            <mxPoint x="1280" y="6860" as="targetPoint" />
          </mxGeometry>
        </mxCell>
        <mxCell id="FSEfA03kbgUQLvhoxwRy-307" value="" style="html=1;points=[[0,0,0,0,5],[0,1,0,0,-5],[1,0,0,0,5],[1,1,0,0,-5]];perimeter=orthogonalPerimeter;outlineConnect=0;targetShapes=umlLifeline;portConstraint=eastwest;newEdgeStyle={&quot;curved&quot;:0,&quot;rounded&quot;:0};strokeColor=#457B9D;fontColor=#1D3557;fillColor=#A8DADC;" vertex="1" parent="1">
          <mxGeometry x="1275" y="7320" width="10" height="20" as="geometry" />
        </mxCell>
        <mxCell id="FSEfA03kbgUQLvhoxwRy-310" value="" style="endArrow=none;dashed=1;html=1;dashPattern=1 3;strokeWidth=2;rounded=0;strokeColor=#457B9D;fontColor=#1D3557;fillColor=#A8DADC;" edge="1" parent="1" target="FSEfA03kbgUQLvhoxwRy-309">
          <mxGeometry width="50" height="50" relative="1" as="geometry">
            <mxPoint x="720" y="7560" as="sourcePoint" />
            <mxPoint x="720" y="7280" as="targetPoint" />
          </mxGeometry>
        </mxCell>
        <mxCell id="FSEfA03kbgUQLvhoxwRy-309" value="" style="html=1;points=[[0,0,0,0,5],[0,1,0,0,-5],[1,0,0,0,5],[1,1,0,0,-5]];perimeter=orthogonalPerimeter;outlineConnect=0;targetShapes=umlLifeline;portConstraint=eastwest;newEdgeStyle={&quot;curved&quot;:0,&quot;rounded&quot;:0};strokeColor=#457B9D;fontColor=#1D3557;fillColor=#A8DADC;" vertex="1" parent="1">
          <mxGeometry x="715" y="7360" width="10" height="100" as="geometry" />
        </mxCell>
        <mxCell id="FSEfA03kbgUQLvhoxwRy-312" value="" style="endArrow=none;dashed=1;html=1;dashPattern=1 3;strokeWidth=2;rounded=0;strokeColor=#457B9D;fontColor=#1D3557;fillColor=#A8DADC;entryX=0.5;entryY=1;entryDx=0;entryDy=0;" edge="1" parent="1" target="FSEfA03kbgUQLvhoxwRy-311">
          <mxGeometry width="50" height="50" relative="1" as="geometry">
            <mxPoint x="2120" y="7560" as="sourcePoint" />
            <mxPoint x="2120" y="7030" as="targetPoint" />
          </mxGeometry>
        </mxCell>
        <mxCell id="FSEfA03kbgUQLvhoxwRy-311" value="" style="html=1;points=[[0,0,0,0,5],[0,1,0,0,-5],[1,0,0,0,5],[1,1,0,0,-5]];perimeter=orthogonalPerimeter;outlineConnect=0;targetShapes=umlLifeline;portConstraint=eastwest;newEdgeStyle={&quot;curved&quot;:0,&quot;rounded&quot;:0};strokeColor=#457B9D;fontColor=#1D3557;fillColor=#A8DADC;" vertex="1" parent="1">
          <mxGeometry x="2115" y="7460" width="10" height="40" as="geometry" />
        </mxCell>
        <mxCell id="FSEfA03kbgUQLvhoxwRy-314" value="" style="endArrow=none;dashed=1;html=1;dashPattern=1 3;strokeWidth=2;rounded=0;strokeColor=#457B9D;fontColor=#1D3557;fillColor=#A8DADC;entryX=0.5;entryY=0.5;entryDx=0;entryDy=0;entryPerimeter=0;" edge="1" parent="1" target="FSEfA03kbgUQLvhoxwRy-313">
          <mxGeometry width="50" height="50" relative="1" as="geometry">
            <mxPoint x="160" y="7561" as="sourcePoint" />
            <mxPoint x="160" y="5685" as="targetPoint" />
          </mxGeometry>
        </mxCell>
        <mxCell id="FSEfA03kbgUQLvhoxwRy-313" value="" style="html=1;points=[[0,0,0,0,5],[0,1,0,0,-5],[1,0,0,0,5],[1,1,0,0,-5]];perimeter=orthogonalPerimeter;outlineConnect=0;targetShapes=umlLifeline;portConstraint=eastwest;newEdgeStyle={&quot;curved&quot;:0,&quot;rounded&quot;:0};strokeColor=#457B9D;fontColor=#1D3557;fillColor=#A8DADC;" vertex="1" parent="1">
          <mxGeometry x="155" y="7080" width="10" height="80" as="geometry" />
        </mxCell>
        <mxCell id="FSEfA03kbgUQLvhoxwRy-55" value="" style="html=1;points=[[0,0,0,0,5],[0,1,0,0,-5],[1,0,0,0,5],[1,1,0,0,-5]];perimeter=orthogonalPerimeter;outlineConnect=0;targetShapes=umlLifeline;portConstraint=eastwest;newEdgeStyle={&quot;curved&quot;:0,&quot;rounded&quot;:0};strokeColor=#457B9D;fontColor=#1D3557;fillColor=#A8DADC;" vertex="1" parent="1">
          <mxGeometry x="715" y="1406" width="10" height="97" as="geometry" />
        </mxCell>
        <mxCell id="FSEfA03kbgUQLvhoxwRy-56" value="" style="html=1;points=[[0,0,0,0,5],[0,1,0,0,-5],[1,0,0,0,5],[1,1,0,0,-5]];perimeter=orthogonalPerimeter;outlineConnect=0;targetShapes=umlLifeline;portConstraint=eastwest;newEdgeStyle={&quot;curved&quot;:0,&quot;rounded&quot;:0};strokeColor=#457B9D;fontColor=#1D3557;fillColor=#A8DADC;" vertex="1" parent="1">
          <mxGeometry x="715" y="1570" width="10" height="95" as="geometry" />
        </mxCell>
        <mxCell id="FSEfA03kbgUQLvhoxwRy-48" value="Opt" style="shape=umlFrame;whiteSpace=wrap;html=1;pointerEvents=0;strokeColor=#457B9D;fontColor=#1D3557;fillColor=#A8DADC;" vertex="1" parent="1">
          <mxGeometry x="580" y="1360" width="1290" height="350" as="geometry" />
        </mxCell>
        <mxCell id="FSEfA03kbgUQLvhoxwRy-49" value="[If &#39;Read Marker&#39; was false]" style="text;html=1;strokeColor=none;fillColor=none;align=center;verticalAlign=middle;whiteSpace=wrap;rounded=0;fontColor=#1D3557;" vertex="1" parent="1">
          <mxGeometry x="625" y="1360" width="190" height="50" as="geometry" />
        </mxCell>
        <mxCell id="FSEfA03kbgUQLvhoxwRy-50" value="Loop" style="shape=umlFrame;whiteSpace=wrap;html=1;pointerEvents=0;strokeColor=#457B9D;fontColor=#1D3557;fillColor=#A8DADC;" vertex="1" parent="1">
          <mxGeometry x="580" y="1520" width="1290" height="190" as="geometry" />
        </mxCell>
        <mxCell id="FSEfA03kbgUQLvhoxwRy-51" value="[While Transaction Fails]" style="text;html=1;strokeColor=none;fillColor=none;align=center;verticalAlign=middle;whiteSpace=wrap;rounded=0;fontColor=#1D3557;" vertex="1" parent="1">
          <mxGeometry x="620" y="1520" width="190" height="50" as="geometry" />
        </mxCell>
        <mxCell id="FSEfA03kbgUQLvhoxwRy-59" value="Alt" style="shape=umlFrame;whiteSpace=wrap;html=1;pointerEvents=0;strokeColor=#457B9D;fontColor=#1D3557;fillColor=#A8DADC;" vertex="1" parent="1">
          <mxGeometry x="80" y="1820" width="440" height="1980" as="geometry" />
        </mxCell>
        <mxCell id="FSEfA03kbgUQLvhoxwRy-62" value="[All &#39;Markers&#39; = false (except &#39;Read Marker&#39;)]" style="text;html=1;strokeColor=none;fillColor=none;align=center;verticalAlign=middle;whiteSpace=wrap;rounded=0;fontColor=#1D3557;" vertex="1" parent="1">
          <mxGeometry x="150" y="1820" width="260" height="50" as="geometry" />
        </mxCell>
        <mxCell id="FSEfA03kbgUQLvhoxwRy-63" value="" style="endArrow=none;dashed=1;html=1;rounded=0;strokeColor=#457B9D;fontColor=#1D3557;fillColor=#A8DADC;entryX=1;entryY=0.277;entryDx=0;entryDy=0;entryPerimeter=0;" edge="1" parent="1">
          <mxGeometry width="50" height="50" relative="1" as="geometry">
            <mxPoint x="80" y="1980" as="sourcePoint" />
            <mxPoint x="520" y="1980.0000000000002" as="targetPoint" />
          </mxGeometry>
        </mxCell>
        <mxCell id="FSEfA03kbgUQLvhoxwRy-64" value="[All &#39;Markers&#39; = false (except &#39;Read Marker&#39;&lt;br&gt;and &#39;Edited Marker&#39;)]" style="text;html=1;strokeColor=none;fillColor=none;align=center;verticalAlign=middle;whiteSpace=wrap;rounded=0;fontColor=#1D3557;" vertex="1" parent="1">
          <mxGeometry x="150" y="1990" width="260" height="50" as="geometry" />
        </mxCell>
        <mxCell id="FSEfA03kbgUQLvhoxwRy-66" value="" style="endArrow=none;dashed=1;html=1;rounded=0;strokeColor=#457B9D;fontColor=#1D3557;fillColor=#A8DADC;entryX=1;entryY=0.277;entryDx=0;entryDy=0;entryPerimeter=0;" edge="1" parent="1">
          <mxGeometry width="50" height="50" relative="1" as="geometry">
            <mxPoint x="80" y="2160" as="sourcePoint" />
            <mxPoint x="520" y="2160" as="targetPoint" />
          </mxGeometry>
        </mxCell>
        <mxCell id="FSEfA03kbgUQLvhoxwRy-67" value="[All &#39;Markers&#39; = false (except &#39;Read Marker&#39;&lt;br&gt;and &#39;Verified Marker&#39;)]" style="text;html=1;strokeColor=none;fillColor=none;align=center;verticalAlign=middle;whiteSpace=wrap;rounded=0;fontColor=#1D3557;" vertex="1" parent="1">
          <mxGeometry x="150" y="2170" width="260" height="50" as="geometry" />
        </mxCell>
        <mxCell id="FSEfA03kbgUQLvhoxwRy-69" value="" style="endArrow=none;dashed=1;html=1;rounded=0;strokeColor=#457B9D;fontColor=#1D3557;fillColor=#A8DADC;entryX=1;entryY=0.277;entryDx=0;entryDy=0;entryPerimeter=0;" edge="1" parent="1">
          <mxGeometry width="50" height="50" relative="1" as="geometry">
            <mxPoint x="80" y="2360" as="sourcePoint" />
            <mxPoint x="520" y="2360" as="targetPoint" />
          </mxGeometry>
        </mxCell>
        <mxCell id="FSEfA03kbgUQLvhoxwRy-70" value="[All &#39;Markers&#39; = false (except &#39;Read Marker&#39;,&amp;nbsp;&#39;Verified Marker&#39; and &#39;Edited Marker&#39;&lt;br&gt;and &#39;Complaint Description&#39; - empty)]" style="text;html=1;strokeColor=none;fillColor=none;align=center;verticalAlign=middle;whiteSpace=wrap;rounded=0;fontColor=#1D3557;" vertex="1" parent="1">
          <mxGeometry x="160" y="2370" width="260" height="50" as="geometry" />
        </mxCell>
        <mxCell id="FSEfA03kbgUQLvhoxwRy-72" value="" style="endArrow=none;dashed=1;html=1;rounded=0;strokeColor=#457B9D;fontColor=#1D3557;fillColor=#A8DADC;entryX=1;entryY=0.277;entryDx=0;entryDy=0;entryPerimeter=0;" edge="1" parent="1">
          <mxGeometry width="50" height="50" relative="1" as="geometry">
            <mxPoint x="80" y="2540" as="sourcePoint" />
            <mxPoint x="520" y="2540" as="targetPoint" />
          </mxGeometry>
        </mxCell>
        <mxCell id="FSEfA03kbgUQLvhoxwRy-73" value="[All &#39;Markers&#39; = false (except &#39;Read Marker&#39;,&amp;nbsp;&lt;br&gt;&#39;Bad Order Marker&#39; and &#39;Verified Marker&#39;)]" style="text;html=1;strokeColor=none;fillColor=none;align=center;verticalAlign=middle;whiteSpace=wrap;rounded=0;fontColor=#1D3557;" vertex="1" parent="1">
          <mxGeometry x="150" y="2550" width="260" height="50" as="geometry" />
        </mxCell>
        <mxCell id="FSEfA03kbgUQLvhoxwRy-76" value="" style="endArrow=none;dashed=1;html=1;rounded=0;strokeColor=#457B9D;fontColor=#1D3557;fillColor=#A8DADC;entryX=1;entryY=0.277;entryDx=0;entryDy=0;entryPerimeter=0;" edge="1" parent="1">
          <mxGeometry width="50" height="50" relative="1" as="geometry">
            <mxPoint x="80" y="2730" as="sourcePoint" />
            <mxPoint x="520" y="2730" as="targetPoint" />
          </mxGeometry>
        </mxCell>
        <mxCell id="FSEfA03kbgUQLvhoxwRy-77" value="[All &#39;Markers&#39; = false (except &#39;Read Marker&#39;,&amp;nbsp;&lt;br&gt;&#39;Bad Order Marker&#39;, &amp;nbsp;&#39;Verified Marker&#39; and&lt;br&gt;&#39;Edited Marker&#39;)]" style="text;html=1;strokeColor=none;fillColor=none;align=center;verticalAlign=middle;whiteSpace=wrap;rounded=0;fontColor=#1D3557;" vertex="1" parent="1">
          <mxGeometry x="150" y="2740" width="260" height="50" as="geometry" />
        </mxCell>
        <mxCell id="FSEfA03kbgUQLvhoxwRy-79" value="" style="endArrow=none;dashed=1;html=1;rounded=0;strokeColor=#457B9D;fontColor=#1D3557;fillColor=#A8DADC;entryX=1;entryY=0.277;entryDx=0;entryDy=0;entryPerimeter=0;" edge="1" parent="1">
          <mxGeometry width="50" height="50" relative="1" as="geometry">
            <mxPoint x="80" y="2920" as="sourcePoint" />
            <mxPoint x="520" y="2920" as="targetPoint" />
          </mxGeometry>
        </mxCell>
        <mxCell id="FSEfA03kbgUQLvhoxwRy-81" value="[All &#39;Markers&#39; = false (except &#39;Read Marker&#39;,&amp;nbsp;&#39;Verified Marker&#39; and &#39;Edited Marker&#39;&lt;br&gt;and &#39;Complaint Description&#39; - not empty)]" style="text;html=1;strokeColor=none;fillColor=none;align=center;verticalAlign=middle;whiteSpace=wrap;rounded=0;fontColor=#1D3557;" vertex="1" parent="1">
          <mxGeometry x="160" y="2940" width="260" height="50" as="geometry" />
        </mxCell>
        <mxCell id="FSEfA03kbgUQLvhoxwRy-83" value="" style="endArrow=none;dashed=1;html=1;rounded=0;strokeColor=#457B9D;fontColor=#1D3557;fillColor=#A8DADC;entryX=1;entryY=0.277;entryDx=0;entryDy=0;entryPerimeter=0;" edge="1" parent="1">
          <mxGeometry width="50" height="50" relative="1" as="geometry">
            <mxPoint x="80" y="3120" as="sourcePoint" />
            <mxPoint x="520" y="3120" as="targetPoint" />
          </mxGeometry>
        </mxCell>
        <mxCell id="FSEfA03kbgUQLvhoxwRy-84" value="[All &#39;Markers&#39; = false (except &#39;Read Marker&#39;,&amp;nbsp;&#39;Verified Marker&#39; and &#39;Done Marker&#39;)]" style="text;html=1;strokeColor=none;fillColor=none;align=center;verticalAlign=middle;whiteSpace=wrap;rounded=0;fontColor=#1D3557;" vertex="1" parent="1">
          <mxGeometry x="160" y="3140" width="260" height="50" as="geometry" />
        </mxCell>
        <mxCell id="FSEfA03kbgUQLvhoxwRy-86" value="" style="endArrow=none;dashed=1;html=1;rounded=0;strokeColor=#457B9D;fontColor=#1D3557;fillColor=#A8DADC;entryX=1;entryY=0.277;entryDx=0;entryDy=0;entryPerimeter=0;" edge="1" parent="1">
          <mxGeometry width="50" height="50" relative="1" as="geometry">
            <mxPoint x="80" y="3320" as="sourcePoint" />
            <mxPoint x="520" y="3320" as="targetPoint" />
          </mxGeometry>
        </mxCell>
        <mxCell id="FSEfA03kbgUQLvhoxwRy-87" value="[All &#39;Markers&#39; = false (except &#39;Read Marker&#39;,&amp;nbsp;&#39;Verified Marker&#39;, &#39;Edited Marker&#39; and &#39;Done Marker&#39;&amp;nbsp;and &#39;Complaint Description&#39; - not empty)]" style="text;html=1;strokeColor=none;fillColor=none;align=center;verticalAlign=middle;whiteSpace=wrap;rounded=0;fontColor=#1D3557;" vertex="1" parent="1">
          <mxGeometry x="160" y="3340" width="260" height="50" as="geometry" />
        </mxCell>
        <mxCell id="FSEfA03kbgUQLvhoxwRy-89" value="" style="endArrow=none;dashed=1;html=1;rounded=0;strokeColor=#457B9D;fontColor=#1D3557;fillColor=#A8DADC;entryX=1;entryY=0.277;entryDx=0;entryDy=0;entryPerimeter=0;" edge="1" parent="1">
          <mxGeometry width="50" height="50" relative="1" as="geometry">
            <mxPoint x="80" y="3560" as="sourcePoint" />
            <mxPoint x="520" y="3560" as="targetPoint" />
          </mxGeometry>
        </mxCell>
        <mxCell id="FSEfA03kbgUQLvhoxwRy-90" value="[All &#39;Markers&#39; = false (except &#39;Read Marker&#39;,&amp;nbsp;&#39;Verified Marker&#39;, &#39;Edited Marker&#39; and &#39;Done Marker&#39;&amp;nbsp;and &#39;Complaint Description&#39; - empty)]" style="text;html=1;strokeColor=none;fillColor=none;align=center;verticalAlign=middle;whiteSpace=wrap;rounded=0;fontColor=#1D3557;" vertex="1" parent="1">
          <mxGeometry x="160" y="3580" width="260" height="50" as="geometry" />
        </mxCell>
        <mxCell id="FSEfA03kbgUQLvhoxwRy-315" value="" style="endArrow=none;dashed=1;html=1;dashPattern=1 3;strokeWidth=2;rounded=0;strokeColor=#457B9D;fontColor=#1D3557;fillColor=#A8DADC;entryX=0.5;entryY=0.5;entryDx=0;entryDy=0;entryPerimeter=0;" edge="1" parent="1" source="FSEfA03kbgUQLvhoxwRy-236" target="FSEfA03kbgUQLvhoxwRy-316">
          <mxGeometry width="50" height="50" relative="1" as="geometry">
            <mxPoint x="160" y="4160" as="sourcePoint" />
            <mxPoint x="160" y="3780" as="targetPoint" />
          </mxGeometry>
        </mxCell>
        <mxCell id="FSEfA03kbgUQLvhoxwRy-316" value="" style="html=1;points=[[0,0,0,0,5],[0,1,0,0,-5],[1,0,0,0,5],[1,1,0,0,-5]];perimeter=orthogonalPerimeter;outlineConnect=0;targetShapes=umlLifeline;portConstraint=eastwest;newEdgeStyle={&quot;curved&quot;:0,&quot;rounded&quot;:0};strokeColor=#457B9D;fontColor=#1D3557;fillColor=#A8DADC;" vertex="1" parent="1">
          <mxGeometry x="155" y="3860" width="10" height="100" as="geometry" />
        </mxCell>
        <mxCell id="FSEfA03kbgUQLvhoxwRy-98" value="Opt" style="shape=umlFrame;whiteSpace=wrap;html=1;pointerEvents=0;strokeColor=#457B9D;fontColor=#1D3557;fillColor=#A8DADC;" vertex="1" parent="1">
          <mxGeometry x="80" y="3860" width="1520" height="380" as="geometry" />
        </mxCell>
        <mxCell id="FSEfA03kbgUQLvhoxwRy-99" value="[Viewing Document]" style="text;html=1;strokeColor=none;fillColor=none;align=center;verticalAlign=middle;whiteSpace=wrap;rounded=0;fontColor=#1D3557;" vertex="1" parent="1">
          <mxGeometry x="160" y="3880" width="170" height="30" as="geometry" />
        </mxCell>
        <mxCell id="FSEfA03kbgUQLvhoxwRy-317" value="" style="endArrow=none;dashed=1;html=1;dashPattern=1 3;strokeWidth=2;rounded=0;strokeColor=#457B9D;fontColor=#1D3557;fillColor=#A8DADC;entryX=0.5;entryY=0.5;entryDx=0;entryDy=0;entryPerimeter=0;" edge="1" parent="1" source="FSEfA03kbgUQLvhoxwRy-239" target="FSEfA03kbgUQLvhoxwRy-318">
          <mxGeometry width="50" height="50" relative="1" as="geometry">
            <mxPoint x="160" y="4510" as="sourcePoint" />
            <mxPoint x="160" y="4200" as="targetPoint" />
          </mxGeometry>
        </mxCell>
        <mxCell id="FSEfA03kbgUQLvhoxwRy-318" value="" style="html=1;points=[[0,0,0,0,5],[0,1,0,0,-5],[1,0,0,0,5],[1,1,0,0,-5]];perimeter=orthogonalPerimeter;outlineConnect=0;targetShapes=umlLifeline;portConstraint=eastwest;newEdgeStyle={&quot;curved&quot;:0,&quot;rounded&quot;:0};strokeColor=#457B9D;fontColor=#1D3557;fillColor=#A8DADC;" vertex="1" parent="1">
          <mxGeometry x="155" y="4286" width="10" height="150" as="geometry" />
        </mxCell>
        <mxCell id="FSEfA03kbgUQLvhoxwRy-108" value="[ &#39;Complaint Description&#39; - empty)]" style="text;html=1;strokeColor=none;fillColor=none;align=center;verticalAlign=middle;whiteSpace=wrap;rounded=0;fontColor=#1D3557;" vertex="1" parent="1">
          <mxGeometry x="145" y="4663" width="260" height="50" as="geometry" />
        </mxCell>
        <mxCell id="FSEfA03kbgUQLvhoxwRy-110" value="Alt" style="shape=umlFrame;whiteSpace=wrap;html=1;pointerEvents=0;strokeColor=#457B9D;fontColor=#1D3557;fillColor=#A8DADC;" vertex="1" parent="1">
          <mxGeometry x="120" y="4663" width="370" height="247" as="geometry" />
        </mxCell>
        <mxCell id="FSEfA03kbgUQLvhoxwRy-111" value="" style="endArrow=none;dashed=1;html=1;rounded=0;strokeColor=#457B9D;fontColor=#1D3557;fillColor=#A8DADC;exitX=0.003;exitY=0.308;exitDx=0;exitDy=0;exitPerimeter=0;entryX=1;entryY=0.305;entryDx=0;entryDy=0;entryPerimeter=0;" edge="1" parent="1">
          <mxGeometry width="50" height="50" relative="1" as="geometry">
            <mxPoint x="121.1099999999999" y="4783.72" as="sourcePoint" />
            <mxPoint x="490" y="4783" as="targetPoint" />
          </mxGeometry>
        </mxCell>
        <mxCell id="FSEfA03kbgUQLvhoxwRy-112" value="[ &#39;Complaint Description&#39; - not empty)]" style="text;html=1;strokeColor=none;fillColor=none;align=center;verticalAlign=middle;whiteSpace=wrap;rounded=0;fontColor=#1D3557;" vertex="1" parent="1">
          <mxGeometry x="140" y="4793" width="260" height="50" as="geometry" />
        </mxCell>
        <mxCell id="FSEfA03kbgUQLvhoxwRy-116" value="Opt" style="shape=umlFrame;whiteSpace=wrap;html=1;pointerEvents=0;strokeColor=#457B9D;fontColor=#1D3557;fillColor=#A8DADC;" vertex="1" parent="1">
          <mxGeometry x="80" y="4360" width="840" height="550" as="geometry" />
        </mxCell>
        <mxCell id="FSEfA03kbgUQLvhoxwRy-117" value="[Edit Description/Satisfying Complaint&lt;br&gt;(if it was about Description)]" style="text;html=1;strokeColor=none;fillColor=none;align=center;verticalAlign=middle;whiteSpace=wrap;rounded=0;fontColor=#1D3557;" vertex="1" parent="1">
          <mxGeometry x="160" y="4360" width="260" height="50" as="geometry" />
        </mxCell>
        <mxCell id="FSEfA03kbgUQLvhoxwRy-131" value="[ &#39;Complaint Description&#39; - empty)]" style="text;html=1;strokeColor=none;fillColor=none;align=center;verticalAlign=middle;whiteSpace=wrap;rounded=0;fontColor=#1D3557;" vertex="1" parent="1">
          <mxGeometry x="145" y="5450" width="260" height="50" as="geometry" />
        </mxCell>
        <mxCell id="FSEfA03kbgUQLvhoxwRy-132" value="Alt" style="shape=umlFrame;whiteSpace=wrap;html=1;pointerEvents=0;strokeColor=#457B9D;fontColor=#1D3557;fillColor=#A8DADC;" vertex="1" parent="1">
          <mxGeometry x="120" y="5450" width="370" height="250" as="geometry" />
        </mxCell>
        <mxCell id="FSEfA03kbgUQLvhoxwRy-133" value="" style="endArrow=none;dashed=1;html=1;rounded=0;strokeColor=#457B9D;fontColor=#1D3557;fillColor=#A8DADC;exitX=0.003;exitY=0.308;exitDx=0;exitDy=0;exitPerimeter=0;entryX=1;entryY=0.305;entryDx=0;entryDy=0;entryPerimeter=0;" edge="1" parent="1">
          <mxGeometry width="50" height="50" relative="1" as="geometry">
            <mxPoint x="121.1099999999999" y="5570.72" as="sourcePoint" />
            <mxPoint x="490" y="5570" as="targetPoint" />
          </mxGeometry>
        </mxCell>
        <mxCell id="FSEfA03kbgUQLvhoxwRy-134" value="[ &#39;Complaint Description&#39; - not empty)]" style="text;html=1;strokeColor=none;fillColor=none;align=center;verticalAlign=middle;whiteSpace=wrap;rounded=0;fontColor=#1D3557;" vertex="1" parent="1">
          <mxGeometry x="140" y="5580" width="260" height="50" as="geometry" />
        </mxCell>
        <mxCell id="FSEfA03kbgUQLvhoxwRy-135" value="Opt" style="shape=umlFrame;whiteSpace=wrap;html=1;pointerEvents=0;strokeColor=#457B9D;fontColor=#1D3557;fillColor=#A8DADC;" vertex="1" parent="1">
          <mxGeometry x="80" y="4960" width="1560" height="740" as="geometry" />
        </mxCell>
        <mxCell id="FSEfA03kbgUQLvhoxwRy-136" value="[Editing the Document/Satisfying Complaint&lt;br&gt;(if it was about Document)]" style="text;html=1;strokeColor=none;fillColor=none;align=center;verticalAlign=middle;whiteSpace=wrap;rounded=0;fontColor=#1D3557;" vertex="1" parent="1">
          <mxGeometry x="150" y="4980" width="260" height="50" as="geometry" />
        </mxCell>
        <mxCell id="FSEfA03kbgUQLvhoxwRy-137" value="[ &#39;Complaint Description&#39; - empty)]" style="text;html=1;strokeColor=none;fillColor=none;align=center;verticalAlign=middle;whiteSpace=wrap;rounded=0;fontColor=#1D3557;" vertex="1" parent="1">
          <mxGeometry x="145" y="5740" width="260" height="50" as="geometry" />
        </mxCell>
        <mxCell id="FSEfA03kbgUQLvhoxwRy-138" value="Alt" style="shape=umlFrame;whiteSpace=wrap;html=1;pointerEvents=0;strokeColor=#457B9D;fontColor=#1D3557;fillColor=#A8DADC;" vertex="1" parent="1">
          <mxGeometry x="120" y="5740" width="370" height="250" as="geometry" />
        </mxCell>
        <mxCell id="FSEfA03kbgUQLvhoxwRy-139" value="" style="endArrow=none;dashed=1;html=1;rounded=0;strokeColor=#457B9D;fontColor=#1D3557;fillColor=#A8DADC;exitX=0.003;exitY=0.308;exitDx=0;exitDy=0;exitPerimeter=0;entryX=1;entryY=0.305;entryDx=0;entryDy=0;entryPerimeter=0;" edge="1" parent="1">
          <mxGeometry width="50" height="50" relative="1" as="geometry">
            <mxPoint x="121.1099999999999" y="5860.72" as="sourcePoint" />
            <mxPoint x="490" y="5860" as="targetPoint" />
          </mxGeometry>
        </mxCell>
        <mxCell id="FSEfA03kbgUQLvhoxwRy-140" value="[ &#39;Complaint Description&#39; - not empty)]" style="text;html=1;strokeColor=none;fillColor=none;align=center;verticalAlign=middle;whiteSpace=wrap;rounded=0;fontColor=#1D3557;" vertex="1" parent="1">
          <mxGeometry x="140" y="5870" width="260" height="50" as="geometry" />
        </mxCell>
        <mxCell id="FSEfA03kbgUQLvhoxwRy-154" value="Opt" style="shape=umlFrame;whiteSpace=wrap;html=1;pointerEvents=0;strokeColor=#457B9D;fontColor=#1D3557;fillColor=#A8DADC;" vertex="1" parent="1">
          <mxGeometry x="650" y="6560" width="1510" height="160" as="geometry" />
        </mxCell>
        <mxCell id="FSEfA03kbgUQLvhoxwRy-155" value="[While Transaction Falis]" style="text;html=1;strokeColor=none;fillColor=none;align=center;verticalAlign=middle;whiteSpace=wrap;rounded=0;fontColor=#1D3557;" vertex="1" parent="1">
          <mxGeometry x="740" y="6760" width="150" height="30" as="geometry" />
        </mxCell>
        <mxCell id="FSEfA03kbgUQLvhoxwRy-156" value="Loop" style="shape=umlFrame;whiteSpace=wrap;html=1;pointerEvents=0;strokeColor=#457B9D;fontColor=#1D3557;fillColor=#A8DADC;" vertex="1" parent="1">
          <mxGeometry x="650" y="6750" width="1230" height="170" as="geometry" />
        </mxCell>
        <mxCell id="FSEfA03kbgUQLvhoxwRy-158" value="Opt" style="shape=umlFrame;whiteSpace=wrap;html=1;pointerEvents=0;strokeColor=#457B9D;fontColor=#1D3557;fillColor=#A8DADC;" vertex="1" parent="1">
          <mxGeometry x="80" y="4285" width="2120" height="2745" as="geometry" />
        </mxCell>
        <mxCell id="FSEfA03kbgUQLvhoxwRy-159" value="[Editing Document/Replying to Complaints]" style="text;html=1;strokeColor=none;fillColor=none;align=center;verticalAlign=middle;whiteSpace=wrap;rounded=0;fontColor=#1D3557;" vertex="1" parent="1">
          <mxGeometry x="160" y="4290" width="260" height="50" as="geometry" />
        </mxCell>
        <mxCell id="FSEfA03kbgUQLvhoxwRy-160" value="[Document Was Edited]" style="text;html=1;strokeColor=none;fillColor=none;align=center;verticalAlign=middle;whiteSpace=wrap;rounded=0;fontColor=#1D3557;" vertex="1" parent="1">
          <mxGeometry x="730" y="6570" width="150" height="30" as="geometry" />
        </mxCell>
        <mxCell id="FSEfA03kbgUQLvhoxwRy-170" value="Opt" style="shape=umlFrame;whiteSpace=wrap;html=1;pointerEvents=0;strokeColor=#457B9D;fontColor=#1D3557;fillColor=#A8DADC;" vertex="1" parent="1">
          <mxGeometry x="80" y="7080" width="2080" height="420" as="geometry" />
        </mxCell>
        <mxCell id="FSEfA03kbgUQLvhoxwRy-171" value="[Verifying Order]" style="text;html=1;strokeColor=none;fillColor=none;align=center;verticalAlign=middle;whiteSpace=wrap;rounded=0;fontColor=#1D3557;" vertex="1" parent="1">
          <mxGeometry x="160" y="7090" width="130" height="30" as="geometry" />
        </mxCell>
      </root>
    </mxGraphModel>
  </diagram>
</mxfile>
